<?xml version="1.0" encoding="UTF-8"?>
<svg version="1.1" xmlns="http://www.w3.org/2000/svg" width="1004" height="1004">
<path d="M0 0 C0.33 0.66 0.66 1.32 1 2 C2.58323688 2.027193 4.16661062 2.04648306 5.75 2.0625 C6.63171875 2.07410156 7.5134375 2.08570313 8.421875 2.09765625 C10.91497947 2.09507529 10.91497947 2.09507529 12.92584359 1.50213156 C16.38313706 0.66515699 19.91294541 0.85531124 23.4514637 0.85854149 C24.74909384 0.85382877 24.74909384 0.85382877 26.07293874 0.84902084 C28.99167772 0.83964538 31.91037957 0.8373832 34.82913208 0.83505249 C36.9348082 0.82977288 39.04048327 0.82406049 41.14615715 0.81795084 C46.94805769 0.80239448 52.74995435 0.7930651 58.55186915 0.78473234 C64.80275568 0.77468903 71.05362819 0.75895458 77.30450439 0.74394226 C88.84691135 0.71710266 100.38932 0.69480096 111.93174043 0.67484303 C122.59264958 0.6563975 133.25355324 0.63611871 143.91445541 0.61400223 C144.97416289 0.61180813 144.97416289 0.61180813 146.05527859 0.60956971 C148.92287399 0.60363124 151.79046938 0.59768589 154.65806474 0.5917291 C181.56983261 0.53586309 208.48160857 0.48579883 235.39339237 0.43831398 C259.32005292 0.3960599 283.24669802 0.34863836 307.17333984 0.296875 C334.03811881 0.23877292 360.90290116 0.18390722 387.76769722 0.13427413 C390.62952353 0.12897802 393.49134983 0.12367388 396.35317612 0.11836624 C397.05786201 0.11706217 397.76254791 0.1157581 398.48858793 0.1144145 C409.14602357 0.09463469 419.80345217 0.07236629 430.46088028 0.0489006 C442.57312958 0.02224571 454.68537835 -0.00075109 466.79764356 -0.01918437 C472.98309165 -0.02868871 479.16852561 -0.03983205 485.35396194 -0.05528831 C491.00756496 -0.06937019 496.66115584 -0.07887945 502.31477331 -0.08461837 C504.36851479 -0.08752486 506.42225464 -0.09215388 508.47598805 -0.09860714 C511.2507485 -0.10707745 514.02544695 -0.10946768 516.80021858 -0.11022377 C517.61203734 -0.11416928 518.4238561 -0.11811479 519.26027542 -0.12217987 C524.77169931 -0.11415035 524.77169931 -0.11415035 527 1 C532.08169093 1.34555498 537.00792025 1.02401636 542 0 C542 0.66 542 1.32 542 2 C543.84725052 2.69159401 543.84725052 2.69159401 546 3 C547.485 2.01 547.485 2.01 549 1 C549.33 1.33 549.66 1.66 550 2 C550.99 2.66 551.98 3.32 553 4 C554.485 3.01 554.485 3.01 556 2 C556.22816406 2.63421875 556.45632813 3.2684375 556.69140625 3.921875 C557.83054639 6.20188374 557.83054639 6.20188374 560.27734375 6.828125 C561.15519531 6.96734375 562.03304687 7.1065625 562.9375 7.25 C563.81277344 7.39953125 564.68804688 7.5490625 565.58984375 7.703125 C568.18247621 8.02247681 570.35328531 8.19401441 572.875 7.4375 C576.2190238 6.74902451 578.98213432 7.49106716 582 9 C582.0928125 9.928125 582.0928125 9.928125 582.1875 10.875 C582.8959257 13.45071525 582.8959257 13.45071525 586.5625 14.75 C588.2640625 15.36875 588.2640625 15.36875 590 16 C590.33 15.01 590.66 14.02 591 13 C591.45375 13.495 591.9075 13.99 592.375 14.5 C593.87635519 16.22609337 593.87635519 16.22609337 596 16 C596 16.99 596 17.98 596 19 C598.97 19.33 601.94 19.66 605 20 C605 20.99 605 21.98 605 23 C606.32 23.33 607.64 23.66 609 24 C609 23.34 609 22.68 609 22 C608.01 21.67 607.02 21.34 606 21 C609 20 609 20 611.625 20.625 C614 22 614 22 614.8125 24.625 C614.874375 25.40875 614.93625 26.1925 615 27 C616.98 27 618.96 27 621 27 C621.12375 27.928125 621.12375 27.928125 621.25 28.875 C621.79922538 31.13720728 621.79922538 31.13720728 623.8125 32.125 C624.534375 32.41375 625.25625 32.7025 626 33 C627.33333333 33.66666667 628.66666667 34.33333333 630 35 C630.33 34.34 630.66 33.68 631 33 C631.99 33.33 632.98 33.66 634 34 C634.33 35.65 634.66 37.3 635 39 C636.65 39 638.3 39 640 39 C640.66 40.65 641.32 42.3 642 44 C643.65 43.67 645.3 43.34 647 43 C648 45 649 47 650 49 C651.32 48.67 652.64 48.34 654 48 C653.67 49.32 653.34 50.64 653 52 C654.32 52 655.64 52 657 52 C657.33 52.99 657.66 53.98 658 55 C659.29355827 56.37195574 660.62298702 57.71182656 662 59 C663.485 58.505 663.485 58.505 665 58 C665 59.98 665 61.96 665 64 C668.08809695 65.76462683 669.23312136 66 673 66 C673.66 67.98 674.32 69.96 675 72 C676.485 71.505 676.485 71.505 678 71 C678.99 73.31 679.98 75.62 681 78 C682.485 77.505 682.485 77.505 684 77 C684.66 77.66 685.32 78.32 686 79 C685.625 81.625 685.625 81.625 685 84 C687.31 84.33 689.62 84.66 692 85 C691.67 85.66 691.34 86.32 691 87 C691.33 87.99 691.66 88.98 692 90 C692.66 90.33 693.32 90.66 694 91 C694.33 91.99 694.66 92.98 695 94 C696.485 93.01 696.485 93.01 698 92 C698.33 92.66 698.66 93.32 699 94 C698.34 94 697.68 94 697 94 C697.33 95.98 697.66 97.96 698 100 C699.32 100 700.64 100 702 100 C702 101.32 702 102.64 702 104 C702.33 103.34 702.66 102.68 703 102 C703.66 102 704.32 102 705 102 C704.855625 102.99 704.71125 103.98 704.5625 105 C704.49572221 109.72214347 707.32163872 111.84620354 710.44140625 115.06640625 C712 117 712 117 712.4375 120.5 C712.293125 121.325 712.14875 122.15 712 123 C714.475 123.495 714.475 123.495 717 124 C718 127 718 127 718 130 C718.63106429 132.01151741 719.29373761 134.01363702 720 136 C721.32 136 722.64 136 724 136 C725 143.625 725 143.625 725 147 C725.66 147.33 726.32 147.66 727 148 C727 148.99 727 149.98 727 151 C727.66 151 728.32 151 729 151 C729.33 150.34 729.66 149.68 730 149 C730.85900779 153.10414832 730.81259154 155.9370423 730 160 C729.98629873 163.17037671 729.98629873 163.17037671 731 166 C733.42885788 167.38858872 733.42885788 167.38858872 736 168 C737 169 737 169 737.09765625 170.84765625 C737.06510417 172.8984375 737.03255208 174.94921875 737 177 C736.34 177 735.68 177 735 177 C736.05450112 183.99728807 736.05450112 183.99728807 738.0625 190.75 C739.06284433 194.21786036 739.12396978 196.98627862 738.97265625 200.55859375 C738.94338715 203.10617403 738.94338715 203.10617403 739.46699619 206.0140419 C740.1583525 210.73219962 740.35739683 215.4560262 740.55540466 220.21673584 C740.61863612 221.7204608 740.61863612 221.7204608 740.68314499 223.25456405 C741.1595247 235.67858479 741.13218186 248.10101391 741.11352539 260.53222656 C741.11324256 263.21052145 741.11335938 265.8888136 741.1139679 268.56710815 C741.11448683 274.28253912 741.11140675 279.99795849 741.10573006 285.71338654 C741.09752544 293.97972629 741.09499073 302.24606055 741.09374207 310.51240394 C741.0915649 323.93535578 741.08494197 337.35830148 741.07543945 350.78125 C741.06623549 363.79622365 741.05916881 376.81119562 741.05493164 389.82617188 C741.05466892 390.63089582 741.05440619 391.43561977 741.05413551 392.26472929 C741.05283015 396.30309869 741.05156646 400.3414681 741.05032361 404.37983751 C741.04071158 435.45352786 741.02516288 466.527212 741.0046621 497.60089707 C741.0040454 498.54016974 741.0034287 499.47944241 741.00279331 500.44717789 C741.00225124 501.25984249 741.00170917 502.0725071 741.00115067 502.90979791 C740.99870844 507.34612916 741.00293113 511.78245136 741.00672913 516.21878052 C741.02705261 540.6483144 741.04205319 565.0778467 741.05181217 589.50738716 C741.05696049 602.0584764 741.0639783 614.60955934 741.07543945 627.16064453 C741.08543811 638.11562507 741.09186554 649.07060104 741.09408849 660.02558601 C741.09538643 665.81811011 741.09841403 671.61062113 741.10573006 677.40314102 C741.11257207 682.86468098 741.11460049 688.32620259 741.11310768 693.78774643 C741.11338032 695.78018036 741.11533598 697.77261497 741.11920547 699.76504517 C741.13640793 709.08844605 741.07595296 718.38646257 740.55540466 727.69747925 C740.51660913 728.41046523 740.47781359 729.12345122 740.43784243 729.85804284 C740.12690265 734.74619471 740.12690265 734.74619471 739 737 C739.66 737 740.32 737 741 737 C740.34 740.96 739.68 744.92 739 749 C739.99 748.67 740.98 748.34 742 748 C741.67 748.99 741.34 749.98 741 751 C740.01 750.67 739.02 750.34 738 750 C738.20625 750.825 738.4125 751.65 738.625 752.5 C739.01994928 756.18619329 738.54263267 758.47718712 737.54296875 761.97265625 C736.74856337 764.93881735 736.42523568 767.96260227 736 771 C735.67 771.66 735.34 772.32 735 773 C735.66 773 736.32 773 737 773 C737 774.65 737 776.3 737 778 C736.01 778.33 735.02 778.66 734 779 C732.92990792 781.82115184 733 783.90544541 733 787 C732.34 787.66 731.68 788.32 731 789 C730.75787127 790.98128508 730.75787127 790.98128508 730.875 793.125 C730.936875 795.043125 730.936875 795.043125 731 797 C729.68 797.66 728.36 798.32 727 799 C727.33 799.66 727.66 800.32 728 801 C727.34 801.33 726.68 801.66 726 802 C726.33 802.99 726.66 803.98 727 805 C726.34 805.33 725.68 805.66 725 806 C725 806.99 725 807.98 725 809 C724.34 809.99 723.68 810.98 723 812 C723.33 812.99 723.66 813.98 724 815 C723.5625 817.1875 723.5625 817.1875 723 819 C723 818.34 723 817.68 723 817 C722.34 817.33 721.68 817.66 721 818 C721 818.66 721 819.32 721 820 C720.01 820.33 719.02 820.66 718 821 C718 821.99 718 822.98 718 824 C717.68578929 826.00309329 717.3548954 828.00371336 717 830 C716.01 829.67 715.02 829.34 714 829 C711.81713451 831.46758708 711.02750754 832.80351759 710.5625 836.125 C710.376875 837.07375 710.19125 838.0225 710 839 C708.0625 840.0625 708.0625 840.0625 706 841 C704.81608777 843.37625345 704.81608777 843.37625345 704 846 C701.96086655 850.66087645 699.24480342 854.17013106 695 857 C692.95586411 859.95264073 692 861.36672806 692 865 C691.21625 865.0825 690.4325 865.165 689.625 865.25 C686.8553382 865.70849401 686.8553382 865.70849401 685.875 868 C685.58625 868.66 685.2975 869.32 685 870 C684.01 870.33 683.02 870.66 682 871 C680.19733731 874.41557141 679.781066 877.16865501 680 881 C676.71687741 882.75881567 673.76143005 884 670 884 C669.67 884.99 669.34 885.98 669 887 C668.01 887 667.02 887 666 887 C665.67 888.32 665.34 889.64 665 891 C664.071875 891.061875 664.071875 891.061875 663.125 891.125 C662.42375 891.41375 661.7225 891.7025 661 892 C659.6954344 894.99615946 659.6954344 894.99615946 659 898 C658.34 897.67 657.68 897.34 657 897 C651.99304781 898.72653524 648.69032853 902.67047839 646.3125 907.25 C644 910 644 910 641.5625 910.53125 C639.76003481 910.67462791 637.95241097 910.76511137 636.14453125 910.796875 C635.08298828 910.89742187 635.08298828 910.89742187 634 911 C633.67 911.66 633.34 912.32 633 913 C633.33 913.33 633.66 913.66 634 914 C633.34 914.99 632.68 915.98 632 917 C631.34 916.34 630.68 915.68 630 915 C629.34 915.66 628.68 916.32 628 917 C628 917.99 628 918.98 628 920 C628 920.99 628 921.98 628 923 C627.01 922.67 626.02 922.34 625 922 C625 921.34 625 920.68 625 920 C620.87248551 920.60698743 617.6678852 922.03810791 614 924 C614.66 924.66 615.32 925.32 616 926 C614.68 926.99 613.36 927.98 612 929 C610 928 610 928 609 927 C608.67 927.99 608.34 928.98 608 930 C605 930 605 930 602.25 929.625 C597.57797229 930.16408012 595.24981003 932.76941961 592 936 C591.34 935.67 590.68 935.34 590 935 C587.57202689 935 585.37092995 935.50085685 583 936 C582.67 936.99 582.34 937.98 582 939 C580.02 938.67 578.04 938.34 576 938 C575.67 938.99 575.34 939.98 575 941 C573.0625 941.8125 573.0625 941.8125 571 942 C570.34 941.34 569.68 940.68 569 940 C569 940.66 569 941.32 569 942 C564.71 942 560.42 942 556 942 C554.88214887 944.11785113 554.88214887 944.11785113 554 947 C552.35 947.33 550.7 947.66 549 948 C549 947.34 549 946.68 549 946 C547.34481046 945.18372788 547.34481046 945.18372788 545 945 C543.88625 945.495 542.7725 945.99 541.625 946.5 C537.50860822 948.20333453 536.25046579 947.80414218 532 947 C529.83477516 946.9106582 527.66706113 946.86984033 525.5 946.875 C523.87578125 946.87113281 523.87578125 946.87113281 522.21875 946.8671875 C519.04939993 946.92643358 519.04939993 946.92643358 516.16535741 947.50043571 C513.09206972 947.98546934 510.24350859 948.12533396 507.13553143 948.12584114 C505.40208289 948.12975276 505.40208289 948.12975276 503.6336152 948.13374341 C502.37326654 948.13151268 501.11291788 948.12928196 499.81437683 948.12698364 C498.4540623 948.12813642 497.09374807 948.129725 495.7334345 948.13171089 C491.99925186 948.13588491 488.26509478 948.13382194 484.53091204 948.13072467 C480.49936604 948.12846203 476.46782443 948.13195513 472.4362793 948.13470459 C464.52783818 948.13915718 456.61940655 948.13818657 448.71096506 948.13529195 C442.25843853 948.13302907 435.80591465 948.13272926 429.35338783 948.13381577 C427.97288327 948.13404561 427.97288327 948.13404561 426.56448973 948.13428011 C424.69399076 948.13459988 422.8234918 948.13492409 420.95299283 948.1352527 C403.38607953 948.13810775 385.81917144 948.13482363 368.25225899 948.12945233 C353.28446233 948.12501621 338.31667346 948.12573353 323.34887695 948.13037109 C305.90939004 948.13577208 288.46990776 948.1377996 271.03042012 948.13475883 C269.15384344 948.13444036 267.27726676 948.13412599 265.40069008 948.13381577 C264.01642957 948.13358435 264.01642957 948.13358435 262.6042042 948.13334826 C256.20560404 948.13249709 249.80700691 948.13393417 243.40840721 948.13629532 C207.10321129 948.14856023 170.82178684 948.08637686 134.52575499 947.15952277 C119.31085896 946.7929981 104.0864855 946.8882277 88.86828613 946.93133545 C84.66805595 946.94198737 80.46781821 946.9462178 76.26757812 946.95117188 C68.17836704 946.96156805 60.08918889 946.97837862 52 947 C51.67 947.66 51.34 948.32 51 949 C51 948.34 51 947.68 51 947 C50.11699219 947.0721875 49.23398437 947.144375 48.32421875 947.21875 C40.86283421 947.79578511 33.48302669 948.13744335 26 948 C26 947.67 26 947.34 26 947 C18.41 947 10.82 947 3 947 C2.67 946.34 2.34 945.68 2 945 C1.030625 945.020625 0.06125 945.04125 -0.9375 945.0625 C-4 945 -4 945 -5 944 C-6.3303125 944.0309375 -6.3303125 944.0309375 -7.6875 944.0625 C-11 944 -11 944 -13.625 943 C-18.70770984 941.4940119 -23.73554125 941.84666625 -29 942 C-29 941.01 -29 940.02 -29 939 C-31.64 938.34 -34.28 937.68 -37 937 C-37 936.34 -37 935.68 -37 935 C-37.5775 935.20625 -38.155 935.4125 -38.75 935.625 C-41.51967567 936.08661261 -42.64561267 935.42944945 -45 934 C-45.33 934.66 -45.66 935.32 -46 936 C-47.98 936 -49.96 936 -52 936 C-52 935.01 -52 934.02 -52 933 C-54.72984553 930.42181255 -57.15627583 928.2479822 -61 928 C-63.21771064 928.85790183 -63.21771064 928.85790183 -65 930 C-65 928.02 -65 926.04 -65 924 C-65.33 925.65 -65.66 927.3 -66 929 C-67.32 928.34 -68.64 927.68 -70 927 C-70 925.35 -70 923.7 -70 922 C-70.68707031 922.08378906 -71.37414062 922.16757812 -72.08203125 922.25390625 C-72.98308594 922.35574219 -73.88414062 922.45757813 -74.8125 922.5625 C-75.70582031 922.66691406 -76.59914063 922.77132812 -77.51953125 922.87890625 C-80 923 -80 923 -83 922 C-82.505 919.525 -82.505 919.525 -82 917 C-85.13498292 915.14223235 -87.37471432 914.79859524 -91 915 C-91 915.66 -91 916.32 -91 917 C-92.65 916.67 -94.3 916.34 -96 916 C-96 912 -96 912 -95 911 C-95.66 910.67 -96.32 910.34 -97 910 C-97 909.01 -97 908.02 -97 907 C-97.99 907 -98.98 907 -100 907 C-100.495 905.515 -100.495 905.515 -101 904 C-102.134375 903.690625 -103.26875 903.38125 -104.4375 903.0625 C-108 902 -108 902 -109.1875 900 C-109.455625 899.34 -109.72375 898.68 -110 898 C-111.91666667 896.83333333 -111.91666667 896.83333333 -114 896 C-114.99 895.34 -115.98 894.68 -117 894 C-117.70125 893.835 -118.4025 893.67 -119.125 893.5 C-119.74375 893.335 -120.3625 893.17 -121 893 C-121.33 892.34 -121.66 891.68 -122 891 C-123.65 891 -125.3 891 -127 891 C-127.495 889.515 -127.495 889.515 -128 888 C-127.01 887.67 -126.02 887.34 -125 887 C-124.01 887.66 -123.02 888.32 -122 889 C-122 888.34 -122 887.68 -122 887 C-122.99 886.67 -123.98 886.34 -125 886 C-125.33 885.34 -125.66 884.68 -126 884 C-126.5775 884.185625 -127.155 884.37125 -127.75 884.5625 C-130.20692525 885.04023546 -131.64397534 884.75729364 -134 884 C-133.67 882.02 -133.34 880.04 -133 878 C-134.32 877.34 -135.64 876.68 -137 876 C-137 876.66 -137 877.32 -137 878 C-138.32 877.67 -139.64 877.34 -141 877 C-140.67 875.02 -140.34 873.04 -140 871 C-142.9254644 870.7763932 -142.9254644 870.7763932 -145 872 C-145 870.68 -145 869.36 -145 868 C-145.66 867.67 -146.32 867.34 -147 867 C-147 866.34 -147 865.68 -147 865 C-148.95927063 863.2856382 -150.95880212 861.61594832 -153 860 C-152.34 859.34 -151.68 858.68 -151 858 C-151.66 857.67 -152.32 857.34 -153 857 C-153.625 854.9375 -153.625 854.9375 -154 853 C-155.32 852.67 -156.64 852.34 -158 852 C-157.938125 851.21625 -157.87625 850.4325 -157.8125 849.625 C-157.874375 848.75875 -157.93625 847.8925 -158 847 C-158.99 846.34 -159.98 845.68 -161 845 C-160.67 844.01 -160.34 843.02 -160 842 C-160.99 841.67 -161.98 841.34 -163 841 C-163.495 839.515 -163.495 839.515 -164 838 C-164.66 837.34 -165.32 836.68 -166 836 C-166 834.68 -166 833.36 -166 832 C-167.98 832.33 -169.96 832.66 -172 833 C-172.33 832.01 -172.66 831.02 -173 830 C-172.34 829.01 -171.68 828.02 -171 827 C-172.42258805 822.67322933 -172.42258805 822.67322933 -175 819 C-175.99 819.66 -176.98 820.32 -178 821 C-178.93619813 817.84493858 -179.1057123 815.03413498 -179.0625 811.75 C-179.05347656 810.85796875 -179.04445313 809.9659375 -179.03515625 809.046875 C-179.01775391 808.03367187 -179.01775391 808.03367187 -179 807 C-179.99 806.67 -180.98 806.34 -182 806 C-182.495 804.515 -182.495 804.515 -183 803 C-183.66 802.67 -184.32 802.34 -185 802 C-184.938125 800.783125 -184.87625 799.56625 -184.8125 798.3125 C-184.80557652 794.40073507 -185.58109254 792.16318668 -188 789 C-188.66 788.34 -189.32 787.68 -190 787 C-190.99 785.515 -190.99 785.515 -192 784 C-191.34 783.34 -190.68 782.68 -190 782 C-189.93992844 779.91501933 -189.93992844 779.91501933 -190.3125 777.625 C-190.41175781 776.85414063 -190.51101562 776.08328125 -190.61328125 775.2890625 C-190.97387031 773.15466662 -191.44160166 771.09041429 -192 769 C-193.32 769 -194.64 769 -196 769 C-196.33 767.35 -196.66 765.7 -197 764 C-196.01 763.67 -195.02 763.34 -194 763 C-194.99 761.515 -194.99 761.515 -196 760 C-195.814375 759.34 -195.62875 758.68 -195.4375 758 C-195.293125 757.34 -195.14875 756.68 -195 756 C-196.35444301 754.22809091 -196.35444301 754.22809091 -198 753 C-196.68 752.01 -195.36 751.02 -194 750 C-195.32 749.34 -196.64 748.68 -198 748 C-198.125 745.125 -198.125 745.125 -198 742 C-197.34 741.34 -196.68 740.68 -196 740 C-196.20123248 737.8728932 -196.41595175 735.74609823 -196.70263672 733.6288147 C-197.22457848 729.01463309 -197.10133751 724.39947828 -197.0625 719.76171875 C-197.05871338 718.71852982 -197.05492676 717.67534088 -197.05102539 716.60054016 C-197.03889493 713.29614964 -197.02025581 709.99185007 -197 706.6875 C-196.9734184 702.31640871 -196.95343969 697.94536032 -196.9375 693.57421875 C-196.92505249 692.07262459 -196.92505249 692.07262459 -196.91235352 690.54069519 C-196.90905029 689.60905045 -196.90574707 688.6774057 -196.90234375 687.7175293 C-196.89448853 686.49249947 -196.89448853 686.49249947 -196.88647461 685.24272156 C-196.99832496 683.03309086 -197.38589733 681.12016063 -198 679 C-197.34 679 -196.68 679 -196 679 C-196.07079236 678.200058 -196.14158472 677.400116 -196.2145223 676.57593334 C-197.01671897 666.64539147 -197.13837629 656.79674484 -197.12025452 646.84011841 C-197.12069141 645.03787212 -197.1215685 643.2356259 -197.12284368 641.43338001 C-197.12506536 636.51671964 -197.12109945 631.60008132 -197.11606562 626.68342376 C-197.11172768 621.36801009 -197.11320991 616.05259756 -197.1139679 610.73718262 C-197.11449102 601.53970167 -197.11136637 592.34222784 -197.10573006 583.14474869 C-197.09758633 569.84690725 -197.09499689 556.54906924 -197.09374207 543.25122558 C-197.09155606 521.67382942 -197.08490821 500.09643706 -197.07543945 478.51904297 C-197.06625366 457.56461608 -197.05917854 436.61019022 -197.05493164 415.65576172 C-197.05466892 414.36308377 -197.05440619 413.07040581 -197.05413551 411.7385558 C-197.05283043 405.25325777 -197.05156673 398.76795972 -197.05032361 392.28266168 C-197.03996504 338.52177183 -197.02235901 284.7608861 -197 231 C-196.34 231 -195.68 231 -195 231 C-195.56739868 226.87026372 -195.56739868 226.87026372 -197 223 C-196.68404492 221.32995171 -196.34820041 219.66362417 -196 218 C-195.80237477 214.35626004 -195.80237477 214.35626004 -197 211 C-196.34 210.67 -195.68 210.34 -195 210 C-195.02320313 209.21496094 -195.04640625 208.42992187 -195.0703125 207.62109375 C-195.17316382 201.63367766 -195.04000055 196.64000151 -193 191 C-192.67 190.01 -192.34 189.02 -192 188 C-193.32 188.33 -194.64 188.66 -196 189 C-196 188.34 -196 187.68 -196 187 C-194.68 187 -193.36 187 -192 187 C-191.93941406 186.41992188 -191.87882812 185.83984375 -191.81640625 185.2421875 C-191.43548618 181.69084042 -191.03769 178.19975698 -190.375 174.6875 C-189.83689333 172.05592062 -189.83689333 172.05592062 -190.5625 169.75 C-190.706875 169.1725 -190.85125 168.595 -191 168 C-189 166 -189 166 -187 165 C-186.37723596 163.17376304 -186.37723596 163.17376304 -186 161 C-185.6875 159.4375 -185.375 157.875 -185.0625 156.3125 C-184.90910156 155.52488281 -184.75570312 154.73726562 -184.59765625 153.92578125 C-184.40042969 153.29027344 -184.20320313 152.65476563 -184 152 C-183.34 151.67 -182.68 151.34 -182 151 C-182.99 151 -183.98 151 -185 151 C-185.1875 148.6875 -185.1875 148.6875 -185 146 C-183.5625 144.3125 -183.5625 144.3125 -182 143 C-181.67 142.34 -181.34 141.68 -181 141 C-180.01 141.33 -179.02 141.66 -178 142 C-178 140.906875 -178 139.81375 -178 138.6875 C-178 136.45833333 -178 134.22916667 -178 132 C-178.33 131.01 -178.66 130.02 -179 129 C-176.69 129 -174.38 129 -172 129 C-172.33 127.35 -172.66 125.7 -173 124 C-172.01 123.505 -172.01 123.505 -171 123 C-171.495 122.01 -171.495 122.01 -172 121 C-171.01 120.01 -171.01 120.01 -170 119 C-170.66 118.67 -171.32 118.34 -172 118 C-171.67 117.34 -171.34 116.68 -171 116 C-169.02 116 -167.04 116 -165 116 C-165.495 112.535 -165.495 112.535 -166 109 C-163.03 109.99 -163.03 109.99 -160 111 C-159.835 109.741875 -159.67 108.48375 -159.5 107.1875 C-159.4071875 106.47980469 -159.314375 105.77210938 -159.21875 105.04296875 C-158.946767 102.84528294 -158.946767 102.84528294 -159 100 C-157.68 100.66 -156.36 101.32 -155 102 C-155 101.01 -155 100.02 -155 99 C-154.33333333 97.33333333 -153.66666667 95.66666667 -153 94 C-153 93.01 -153 92.02 -153 91 C-150.36 90.01 -147.72 89.02 -145 88 C-145 86.68 -145 85.36 -145 84 C-143.35 84 -141.7 84 -140 84 C-139.690625 83.21625 -139.38125 82.4325 -139.0625 81.625 C-137.23483366 77.10958904 -137.23483366 77.10958904 -135.125 76.125 C-132.61137087 74.79425516 -131.64346006 73.28655313 -130 71 C-129.01 70.34 -128.02 69.68 -127 69 C-127.33 68.34 -127.66 67.68 -128 67 C-126.824375 66.5978125 -126.824375 66.5978125 -125.625 66.1875 C-122.71885077 65.15185568 -122.71885077 65.15185568 -121 62 C-120.67 61.01 -120.34 60.02 -120 59 C-118.02 58.67 -116.04 58.34 -114 58 C-113.67 57.01 -113.34 56.02 -113 55 C-112.34 55 -111.68 55 -111 55 C-111.33 54.01 -111.66 53.02 -112 52 C-110.68 51.67 -109.36 51.34 -108 51 C-108 49.35 -108 47.7 -108 46 C-106.02 46.33 -104.04 46.66 -102 47 C-101.67 46.01 -101.34 45.02 -101 44 C-100.01 44 -99.02 44 -98 44 C-97.566875 43.566875 -97.13375 43.13375 -96.6875 42.6875 C-95 41 -95 41 -91.875 39.5625 C-88.85753366 38.31884972 -88.85753366 38.31884972 -88.125 35.8125 C-88.08375 35.214375 -88.0425 34.61625 -88 34 C-87.34 34 -86.68 34 -86 34 C-85.01 33.01 -85.01 33.01 -84 32 C-83.67 32.99 -83.34 33.98 -83 35 C-82.34 35 -81.68 35 -81 35 C-81 34.01 -81 33.02 -81 32 C-79.865625 31.54625 -78.73125 31.0925 -77.5625 30.625 C-73.95278308 29.42904194 -73.95278308 29.42904194 -73 27 C-71.67851173 26.62243192 -70.34164079 26.2981424 -69 26 C-67.3255761 25.3530635 -65.65697379 24.69040574 -64 24 C-64.33 22.68 -64.66 21.36 -65 20 C-64.41992188 20.02320312 -63.83984375 20.04640625 -63.2421875 20.0703125 C-58.41075911 20.18192966 -54.50814887 19.97918731 -50 18 C-49.34 17.34 -48.68 16.68 -48 16 C-48.99 16 -49.98 16 -51 16 C-50.67 15.01 -50.34 14.02 -50 13 C-49.67 13.66 -49.34 14.32 -49 15 C-45.77493444 16.26699004 -43.2878364 15.97746487 -40 15 C-39.67 14.34 -39.34 13.68 -39 13 C-38.01 12.67 -37.02 12.34 -36 12 C-36.33 10.68 -36.66 9.36 -37 8 C-32.60808728 7.22495658 -29.33037923 7.06370179 -25 8 C-24.39027344 7.84660156 -23.78054687 7.69320312 -23.15234375 7.53515625 C-20.77150421 6.94318707 -18.69895001 6.90148603 -16.25 6.9375 C-15.45078125 6.94652344 -14.6515625 6.95554687 -13.828125 6.96484375 C-13.22484375 6.97644531 -12.6215625 6.98804688 -12 7 C-12 6.34 -12 5.68 -12 5 C-11.071875 4.566875 -11.071875 4.566875 -10.125 4.125 C-7.86674235 3.06279958 -7.86674235 3.06279958 -6 1 C-4 0 -4 0 0 0 Z M-4 2 C-4.33 2.66 -4.66 3.32 -5 4 C-3.68 3.67 -2.36 3.34 -1 3 C-1.99 2.67 -2.98 2.34 -4 2 Z M554 4 C555 6 555 6 555 6 Z M-34 8 C-33 11 -33 11 -33 11 Z M573 8 C574 11 574 11 574 11 Z M-28 9 C-27.67 9.66 -27.34 10.32 -27 11 C-26.67 10.34 -26.34 9.68 -26 9 C-26.66 9 -27.32 9 -28 9 Z M578 9 C578 9.99 578 10.98 578 12 C578.99 11.34 579.98 10.68 581 10 C580.01 9.67 579.02 9.34 578 9 Z M-62 21 C-61 23 -61 23 -61 23 Z M-150 92 C-149 94 -149 94 -149 94 Z M-158 104 C-157 106 -157 106 -157 106 Z M-171 126 C-170 128 -170 128 -170 128 Z M-175 132 C-174 134 -174 134 -174 134 Z M-183 146 C-182 148 -182 148 -182 148 Z M-187 166 C-186 168 -186 168 -186 168 Z M734 169 C733.01 170.485 733.01 170.485 732 172 C732.99 172.33 733.98 172.66 735 173 C735.33 172.34 735.66 171.68 736 171 C735.34 170.34 734.68 169.68 734 169 Z M734 773 C734.33 774.32 734.66 775.64 735 777 C735.33 776.01 735.66 775.02 736 774 C735.34 773.67 734.68 773.34 734 773 Z M-189 783 C-188 785 -188 785 -188 785 Z M-138 872 C-138.33 873.32 -138.66 874.64 -139 876 C-137.68 875.34 -136.36 874.68 -135 874 C-135.66 874 -136.32 874 -137 874 C-137.33 873.34 -137.66 872.68 -138 872 Z M676 877 C676 877.99 676 878.98 676 880 C676.99 879.67 677.98 879.34 679 879 C678.67 878.34 678.34 877.68 678 877 C677.34 877 676.68 877 676 877 Z M-130 880 C-130.33 880.99 -130.66 881.98 -131 883 C-130.34 883 -129.68 883 -129 883 C-129.33 882.01 -129.66 881.02 -130 880 Z M-119 890 C-118 893 -118 893 -118 893 Z M641 906 C642 908 642 908 642 908 Z M-94 913 C-93 915 -93 915 -93 915 Z M625 916 C626 918 626 918 626 918 Z M-81 919 C-79.515 919.99 -79.515 919.99 -78 921 C-77.01 920.67 -76.02 920.34 -75 920 C-77.97 919.505 -77.97 919.505 -81 919 Z M-50 931 C-49 934 -49 934 -49 934 Z " fill="#7435E7" transform="translate(230,25)"/>
<path d="M0 0 C10.85699074 8.25591588 20.30420495 18.21845398 29.91796875 27.84765625 C31.41133819 29.34035053 32.90485591 30.83289647 34.39851379 32.32530212 C37.5123375 35.43765974 40.6243664 38.55179772 43.73510742 41.66723633 C47.70576371 45.64359919 51.68090699 49.61544134 55.6574049 53.58596134 C58.73656183 56.66149166 61.81331698 59.73941587 64.88936806 62.81805229 C66.35374048 64.28308766 67.81884464 65.74739204 69.28471947 67.21092415 C71.33702921 69.2606716 73.38606813 71.31363643 75.43432617 73.36743164 C76.02929901 73.96038025 76.62427185 74.55332886 77.23727417 75.16424561 C80.88245484 78.82754396 84.30981531 82.62857713 87.69136238 86.53575516 C89.79744523 88.92518958 92.03234771 91.15173035 94.3125 93.375 C95.41277191 94.47253115 96.51154574 95.5715652 97.60920715 96.67170715 C98.51562454 97.57812454 98.51562454 97.57812454 99.44035339 98.50285339 C121.3977356 120.4602356 143.3551178 142.4176178 165.3125 164.375 C169.0416397 162.65430958 171.06631432 160.63484255 173.75 157.5 C175.95051863 154.93591742 177.98730258 152.62714975 180.66015625 150.5546875 C182.82979768 148.77168321 184.36662203 147.20644654 186.14578247 145.08232117 C191.66304589 138.71641511 197.68491506 132.83780487 203.63232422 126.87817383 C204.97852437 125.52569859 206.32453779 124.17303747 207.67037964 122.82020569 C212.06575559 118.40392684 216.46634275 113.99285928 220.8671875 109.58203125 C222.38726131 108.05790598 223.90730229 106.53374797 225.42731094 105.00955772 C232.56505869 97.85279568 239.70518911 90.69842138 246.8482722 83.54698449 C255.0775133 75.30795785 263.29839525 67.060706 271.5123328 58.80642301 C277.87579684 52.41278235 284.24693374 46.02685296 290.62384808 39.6466276 C294.42678219 35.84134667 298.22636048 32.03285364 302.01784897 28.21616554 C305.58287817 24.62782099 309.1573538 21.04916096 312.73918533 17.47759056 C314.04831804 16.16895232 315.35406257 14.856914 316.65605164 13.54116821 C327.98827292 2.09598325 338.16830655 -5.56016016 354.8125 -6.0625 C361.49134505 -5.90811464 366.45160589 -4.76405515 372.3125 -1.625 C373.45332031 -1.07585937 373.45332031 -1.07585937 374.6171875 -0.515625 C386.12307243 5.59569749 396.20878745 16.29391097 404.3125 26.375 C405.23266096 27.48341503 406.15328014 28.59144975 407.07421875 29.69921875 C413.8163969 37.88346494 419.90080358 46.25637349 425.3125 55.375 C425.71710449 56.05401367 426.12170898 56.73302734 426.53857422 57.43261719 C445.91636938 90.2877024 455.48471981 126.2937982 455.45294189 164.46052551 C455.45739858 166.17534521 455.45739858 166.17534521 455.4619453 167.92480773 C455.4705463 171.71656241 455.47213316 175.5082852 455.47363281 179.30004883 C455.47773559 182.03459352 455.48327267 184.76913498 455.48867798 187.50367737 C455.50218089 194.90457065 455.50827258 202.30545846 455.51268864 209.70636201 C455.51546317 214.33635906 455.51970249 218.96635406 455.52419281 223.59634972 C455.53637198 236.44293619 455.54667588 249.28952105 455.5500679 262.13611317 C455.55028747 262.95606275 455.55050703 263.77601234 455.55073325 264.62080888 C455.55095153 265.44258167 455.55116981 266.26435445 455.5513947 267.11102945 C455.55183815 268.77592393 455.55228471 270.44081841 455.55273438 272.10571289 C455.5529558 272.93153654 455.55317723 273.75736019 455.55340537 274.6082088 C455.55735331 287.98877473 455.57481328 301.36928621 455.5980939 314.74983112 C455.62186216 328.52291323 455.63427213 342.29596806 455.63543582 356.06907099 C455.63634919 363.78801397 455.64201626 371.50688583 455.66025543 379.2258091 C455.67573018 385.79729587 455.6807335 392.36868951 455.67251733 398.94019107 C455.66863749 402.28609114 455.6710744 405.63165313 455.68357468 408.97755432 C455.80191106 442.64213231 455.80191106 442.64213231 448.6875 457.625 C448.34340088 458.37241455 447.99930176 459.1198291 447.64477539 459.88989258 C444.36168745 466.75198176 440.29448519 472.60830653 435.3125 478.375 C434.77367187 479.0246875 434.23484375 479.674375 433.6796875 480.34375 C420.38011299 495.04679719 398.59069337 502.27052017 379.3125 503.375 C370.83340204 503.76299444 363.09113763 504.07840491 355.3125 500.375 C354.56613281 500.02308594 353.81976562 499.67117188 353.05078125 499.30859375 C342.09279375 493.67146266 335.33228014 486.1597401 331 474.6875 C327.44554802 463.09182879 328.7996728 453.10830751 334.3125 442.375 C340.58680754 432.21732251 350.29561332 424.93309327 361.9375 422.125 C365.43424349 421.37105531 368.74156985 421.3518161 372.3125 421.375 C372.29935953 387.00486353 372.25985601 352.6348663 372.18564438 318.26480812 C372.17687901 314.19493106 372.16832896 310.12505358 372.15991211 306.05517578 C372.15823305 305.2450334 372.15655398 304.43489102 372.15482404 303.60019886 C372.12825011 290.53138961 372.11906588 277.46262423 372.11645857 264.39379072 C372.11338479 250.9555066 372.09127473 237.51734804 372.05197543 224.07912064 C372.02836661 215.80598613 372.01910623 207.53310325 372.02898689 199.25993985 C372.03435721 193.56475788 372.02101846 187.86979862 371.9938371 182.17468005 C371.97874644 178.90273856 371.97386862 175.63138731 371.98590279 172.35941887 C372.07071358 146.73765791 368.60179938 121.94694881 355.51171875 99.51171875 C354.3125 97.375 354.3125 97.375 353.3125 94.375 C345.16498176 101.07277591 337.89822229 108.70881095 330.48974609 116.1953125 C328.99433303 117.70248117 327.4986386 119.20937072 326.00268555 120.71600342 C322.79212145 123.94998623 319.5828583 127.18525266 316.37440109 130.42132568 C311.29254296 135.54551473 306.20351603 140.66254277 301.11270142 145.77783203 C299.8209505 147.07586541 299.8209505 147.07586541 298.50310361 148.40012169 C296.74270847 150.16901985 294.98228937 151.93789417 293.22184682 153.70674515 C281.37927344 165.60613259 269.54073485 177.50940521 257.72509766 189.43554688 C249.74169826 197.4935047 241.74583545 205.53886195 233.73545134 213.56999779 C229.50369211 217.81369919 225.27844006 222.06344495 221.06837082 226.32867432 C217.10586641 230.34287864 213.12702799 234.34015555 209.13548279 238.3254776 C207.68063885 239.78382032 206.23171793 241.24810207 204.78952408 242.71895599 C193.66713216 254.0520459 182.77550205 263.42132413 166.125 263.625 C153.9792528 263.61769561 143.63950882 259.1027341 134.97239405 250.54655719 C134.07993618 249.63559909 134.07993618 249.63559909 133.16944885 248.70623779 C132.50980178 248.04930286 131.85015471 247.39236792 131.17051834 246.71552587 C128.98240901 244.53163296 126.80884239 242.33383921 124.63500977 240.13574219 C123.06146082 238.55942544 121.48701988 236.98399869 119.91175842 235.40939331 C115.65131914 231.14583886 111.40323725 226.87016114 107.1571629 222.59230709 C102.71064039 218.11700071 98.25233599 213.65346417 93.79515076 209.18878174 C86.31849669 201.69654815 78.84850482 194.19772646 71.3840332 186.69335938 C63.70222925 178.97054897 56.0176233 171.25054936 48.32836914 163.53515625 C47.85394517 163.05911598 47.37952119 162.58307571 46.89072073 162.09260997 C41.7135962 156.89801277 36.53563543 151.70424999 31.35709286 146.51106644 C30.44947738 145.60088155 29.5418619 144.69069665 28.60674292 143.7529304 C26.79783361 141.93892417 24.9888919 140.12495026 23.1799168 138.31100965 C17.87250862 132.98831511 12.56866545 127.66209965 7.26782715 122.33286238 C3.97939244 119.02746452 0.68904456 115.72397568 -2.60169411 112.42087173 C-4.13207587 110.88380078 -5.66157542 109.34585089 -7.1901474 107.80698013 C-9.26895174 105.71433328 -11.35075881 103.62472043 -13.43333435 101.53582764 C-14.04392132 100.91959935 -14.65450828 100.30337106 -15.28359789 99.66846919 C-18.20348717 96.65124288 -18.20348717 96.65124288 -21.6875 94.375 C-21.93886719 94.88160156 -22.19023437 95.38820313 -22.44921875 95.91015625 C-23.43997756 97.88229761 -24.44599047 99.84677289 -25.45703125 101.80859375 C-38.02640966 126.31641949 -41.29293586 148.4302468 -41.23339844 175.81958008 C-41.24215278 178.51232038 -41.25247308 181.20501317 -41.26472473 183.8977356 C-41.28783266 189.64979008 -41.29679446 195.40171923 -41.29561615 201.15381813 C-41.29393388 209.46993357 -41.31441275 217.78588386 -41.33997145 226.1019549 C-41.38087078 239.60043258 -41.40431887 253.09888017 -41.41650391 266.59741211 C-41.42836512 279.6950977 -41.44862455 292.79272681 -41.47998047 305.89038086 C-41.48191657 306.70031346 -41.48385267 307.51024606 -41.48584744 308.34472207 C-41.4956133 312.40869054 -41.50554218 316.47265859 -41.51555204 320.53662646 C-41.59813269 354.14939322 -41.65227032 387.76215037 -41.6875 421.375 C-40.42147949 421.36581543 -39.15545898 421.35663086 -37.85107422 421.34716797 C-26.90656297 421.26776907 -17.18711766 426.82974565 -9.375 434.1875 C-0.69803943 443.39033697 1.83765715 453.35957625 1.625 465.7734375 C0.52245359 478.48028484 -5.68408622 487.41439439 -15.11328125 495.546875 C-27.19058641 504.1237776 -41.53619563 504.87458915 -55.71459961 502.55493164 C-59.06552217 501.93085808 -62.37823691 501.19047691 -65.6875 500.375 C-66.36345215 500.20871094 -67.0394043 500.04242187 -67.73583984 499.87109375 C-86.21087013 495.13503092 -102.07282819 484.42969112 -112.6875 468.375 C-123.78594387 448.62901862 -125.42113064 429.61185059 -125.30273438 407.30322266 C-125.30347397 404.50545277 -125.31171238 401.70771569 -125.31954956 398.90995789 C-125.33397387 392.13975803 -125.32194577 385.36986118 -125.30043632 378.59969021 C-125.27624717 370.69126056 -125.2781517 362.78289771 -125.28074223 354.87443928 C-125.28442138 340.74826181 -125.26370431 326.62222564 -125.22949219 312.49609375 C-125.19642071 298.83557565 -125.18223316 285.17520578 -125.18847656 271.51464844 C-125.19635161 254.19925271 -125.18685134 236.88394894 -125.16363403 219.56856734 C-125.15678314 214.07592505 -125.15606165 208.58330195 -125.15751648 203.09065628 C-125.15896724 196.38140444 -125.14906696 189.67227226 -125.12557012 182.96305992 C-125.11383769 179.54982004 -125.10813392 176.13688222 -125.11240768 172.7236042 C-125.12766626 157.65326173 -124.50693348 143.19610689 -121.6875 128.375 C-121.47863411 127.21513895 -121.26976822 126.0552779 -121.05457306 124.86026955 C-115.94350981 97.0093528 -105.32764723 69.42811761 -88.6875 46.375 C-88.23407227 45.73804199 -87.78064453 45.10108398 -87.31347656 44.44482422 C-80.67669028 35.172387 -73.61589852 26.57195988 -65.6875 18.375 C-64.84316406 17.49070312 -63.99882812 16.60640625 -63.12890625 15.6953125 C-46.27067585 -1.61001606 -23.66969454 -14.94928076 0 0 Z " fill="#FCFCFD" transform="translate(335.6875,293.625)"/>
<path d="M0 0 C0.33 0 0.66 0 1 0 C2.15797001 12.19975684 2.12911716 24.34374117 2.09765625 36.5859375 C2.09578731 38.7406918 2.09436566 40.89544653 2.09336853 43.05020142 C2.0895808 48.67575284 2.07978321 54.30127777 2.06866455 59.92681885 C2.05836921 65.68558392 2.05385363 71.44435334 2.04882812 77.203125 C2.03815698 88.46876154 2.02112645 99.73437855 2 111 C1.34 111 0.68 111 0 111 C-1.03558139 73.95042338 -1.38340603 37.04290404 0 0 Z " fill="#8950EF" transform="translate(969,244)"/>
<path d="M0 0 C0.66 0 1.32 0 2 0 C2.16987605 4.88865511 2.33014845 9.77750532 2.48217773 14.66674805 C2.53498691 16.32405714 2.59025379 17.98129007 2.64819336 19.63842773 C2.99178256 29.51885817 3.05650689 39.15212195 2 49 C1.67 49 1.34 49 1 49 C0.13124421 43.03594643 -0.1339853 37.27190402 -0.09765625 31.25 C-0.0962413 30.35128174 -0.09482635 29.45256348 -0.09336853 28.52661133 C-0.08781583 25.68437225 -0.07527237 22.84221487 -0.0625 20 C-0.05747888 18.06119906 -0.05291705 16.12239688 -0.04882812 14.18359375 C-0.03786194 9.45569817 -0.02063044 4.72786289 0 0 Z " fill="#7640F7" transform="translate(34,395)"/>
<path d="M0 0 C0.33 0 0.66 0 1 0 C2.40782313 5.94796498 2.18602113 11.89364501 2.18530273 17.97485352 C2.18749696 20.05961292 2.20570473 22.1438491 2.22460938 24.22851562 C2.22654297 25.54658203 2.22847656 26.86464844 2.23046875 28.22265625 C2.23457764 29.42672119 2.23868652 30.63078613 2.24291992 31.87133789 C2.01214834 34.84353676 1.56092475 36.50337105 0 39 C-1.22869216 30.78141469 -0.9054935 22.70745441 -0.5625 14.4375 C-0.50915672 13.03322612 -0.45641764 11.62892916 -0.40429688 10.22460938 C-0.2754541 6.81613242 -0.14052672 3.40801187 0 0 Z " fill="#834BEF" transform="translate(34,557)"/>
<path d="M0 0 C0.33 0 0.66 0 1 0 C3.33834337 12.94440082 3.17986708 24.93718588 2 38 C1.67 38 1.34 38 1 38 C-0.03987597 33.75054147 -0.12989631 29.64072144 -0.09765625 25.29296875 C-0.0962413 24.56757401 -0.09482635 23.84217926 -0.09336853 23.09480286 C-0.08779931 20.7923255 -0.07525261 18.48994765 -0.0625 16.1875 C-0.05748102 14.62044412 -0.05291881 13.0533867 -0.04882812 11.48632812 C-0.03783998 7.65751411 -0.02059673 3.82877389 0 0 Z " fill="#7031F4" transform="translate(34,524)"/>
<path d="M0 0 C0.66 0.33 1.32 0.66 2 1 C2 16.51 2 32.02 2 48 C1.34 48 0.68 48 0 48 C-0.16782889 41.32494807 -0.32779181 34.64974154 -0.48217773 27.97436523 C-0.5356848 25.70153492 -0.59102056 23.42874692 -0.64819336 21.15600586 C-0.72986216 17.89706551 -0.80504251 14.63803164 -0.87890625 11.37890625 C-0.90594131 10.35599991 -0.93297638 9.33309357 -0.96083069 8.27919006 C-0.98092697 7.33829025 -1.00102325 6.39739044 -1.02172852 5.42797852 C-1.04171402 4.59524918 -1.06169952 3.76251984 -1.08229065 2.90455627 C-1 1 -1 1 0 0 Z " fill="#9661F2" transform="translate(969,307)"/>
<path d="M0 0 C0.66 0 1.32 0 2 0 C1.49711405 4.30246865 0.26926751 6.21278486 -2.81640625 9.20703125 C-3.96206055 10.33334961 -3.96206055 10.33334961 -5.13085938 11.48242188 C-5.93330078 12.25134766 -6.73574219 13.02027344 -7.5625 13.8125 C-8.36880859 14.60076172 -9.17511719 15.38902344 -10.00585938 16.20117188 C-11.99520169 18.14342916 -13.99327271 20.07573661 -16 22 C-16.66 21.67 -17.32 21.34 -18 21 C-17.505 19.515 -17.505 19.515 -17 18 C-15.66666667 17.33333333 -14.33333333 16.66666667 -13 16 C-11.9739266 14.68662604 -10.97272675 13.35335895 -10 12 C-9.01 11.34 -8.02 10.68 -7 10 C-7.33 9.34 -7.66 8.68 -8 8 C-7.21625 7.731875 -6.4325 7.46375 -5.625 7.1875 C-2.71885077 6.15185568 -2.71885077 6.15185568 -1 3 C-0.67 2.01 -0.34 1.02 0 0 Z " fill="#9971FB" transform="translate(110,84)"/>
<path d="M0 0 C1.65 0 3.3 0 5 0 C4.4590069 3.78695173 2.96567536 5.62745972 0 8 C-1.32 8 -2.64 8 -4 8 C-4.33 9.98 -4.66 11.96 -5 14 C-6.65 14.33 -8.3 14.66 -10 15 C-9.67 14.236875 -9.34 13.47375 -9 12.6875 C-7.82563314 10.00930865 -7.82563314 10.00930865 -8 7 C-5.36 6.01 -2.72 5.02 0 4 C0 2.68 0 1.36 0 0 Z " fill="#FAF4FE" transform="translate(85,109)"/>
<path d="M0 0 C0.33 0 0.66 0 1 0 C1.86809439 5.20173095 2.12515348 10.16978816 2.0625 15.4375 C2.05798828 16.16904297 2.05347656 16.90058594 2.04882812 17.65429688 C2.03718148 19.43623419 2.01925191 21.21812863 2 23 C1.34 23.33 0.68 23.66 0 24 C-0.90777093 20.13116676 -1.13435263 16.53269271 -1.125 12.5625 C-1.12886719 10.92474609 -1.12886719 10.92474609 -1.1328125 9.25390625 C-1.00359489 6.08807476 -0.59097317 3.10964455 0 0 Z " fill="#8752F1" transform="translate(34,647)"/>
<path d="M0 0 C0.66 0.33 1.32 0.66 2 1 C2 1.66 2 2.32 2 3 C2.66 3.33 3.32 3.66 4 4 C3.32453125 4.39832031 2.6490625 4.79664063 1.953125 5.20703125 C1.06109375 5.73683594 0.1690625 6.26664063 -0.75 6.8125 C-1.63171875 7.33457031 -2.5134375 7.85664062 -3.421875 8.39453125 C-6.00137778 9.92258482 -6.00137778 9.92258482 -8.140625 11.76171875 C-8.75421875 12.17035156 -9.3678125 12.57898438 -10 13 C-10.99 12.67 -11.98 12.34 -13 12 C-11.06971168 9.74799696 -9.63116276 8.83033487 -6.875 7.5625 C-3.85753366 6.31884972 -3.85753366 6.31884972 -3.125 3.8125 C-3.08375 3.214375 -3.0425 2.61625 -3 2 C-2.34 2 -1.68 2 -1 2 C-0.67 1.34 -0.34 0.68 0 0 Z " fill="#C6ABFA" transform="translate(145,57)"/>
<path d="M0 0 C0 6.27 0 12.54 0 19 C-0.99 19 -1.98 19 -3 19 C-3.33 17.68 -3.66 16.36 -4 15 C-3.34 15 -2.68 15 -2 15 C-2.33 10.38 -2.66 5.76 -3 1 C-1 0 -1 0 0 0 Z " fill="#864EEE" transform="translate(36,689)"/>
<path d="M0 0 C0.66 0.33 1.32 0.66 2 1 C2 2.32 2 3.64 2 5 C2.19464844 5.65484375 2.38929687 6.3096875 2.58984375 6.984375 C3.11110497 9.54600159 2.55891853 10.85859553 1.5625 13.25 C1.27503906 13.95640625 0.98757812 14.6628125 0.69140625 15.390625 C0.46324219 15.92171875 0.23507813 16.4528125 0 17 C-0.66 17 -1.32 17 -2 17 C-1.88637738 15.5199159 -1.75877092 14.04089926 -1.625 12.5625 C-1.55539063 11.73878906 -1.48578125 10.91507813 -1.4140625 10.06640625 C-1.27742188 9.38449219 -1.14078125 8.70257813 -1 8 C-0.34 7.67 0.32 7.34 1 7 C0.01 7 -0.98 7 -2 7 C-2.125 4.625 -2.125 4.625 -2 2 C-1.34 1.34 -0.68 0.68 0 0 Z " fill="#B490FA" transform="translate(47,169)"/>
<path d="M0 0 C0.66 0 1.32 0 2 0 C2 7.59 2 15.18 2 23 C1.34 23 0.68 23 0 23 C-0.33 19.7 -0.66 16.4 -1 13 C-0.34 13 0.32 13 1 13 C0.43260132 8.87026372 0.43260132 8.87026372 -1 5 C-0.72057545 3.32345271 -0.39171753 1.65391846 0 0 Z " fill="#8145F7" transform="translate(34,243)"/>
<path d="M0 0 C1.55693206 2.33539809 2.90200646 4.57968756 4.1875 7.0625 C4.55230469 7.75472656 4.91710938 8.44695313 5.29296875 9.16015625 C5.52628906 9.76730469 5.75960937 10.37445312 6 11 C5.67 11.66 5.34 12.32 5 13 C4.34 11.35 3.68 9.7 3 8 C2.01 8.99 1.02 9.98 0 11 C-0.66 10.34 -1.32 9.68 -2 9 C-1.7578125 6.8359375 -1.7578125 6.8359375 -1.125 4.375 C-0.92132813 3.55773437 -0.71765625 2.74046875 -0.5078125 1.8984375 C-0.34023438 1.27195312 -0.17265625 0.64546875 0 0 Z " fill="#701BE3" transform="translate(53,835)"/>
<path d="M0 0 C1.22589844 0.01353516 1.22589844 0.01353516 2.4765625 0.02734375 C3.41628906 0.04474609 3.41628906 0.04474609 4.375 0.0625 C4.375 0.7225 4.375 1.3825 4.375 2.0625 C3.13323305 2.76476141 1.88114401 3.44879109 0.625 4.125 C-0.41914063 4.69927734 -0.41914063 4.69927734 -1.484375 5.28515625 C-3.98640628 6.1937406 -5.1582355 5.94586837 -7.625 5.0625 C-6.965 5.0625 -6.305 5.0625 -5.625 5.0625 C-5.955 3.7425 -6.285 2.4225 -6.625 1.0625 C-4.21954362 -0.14022819 -2.67503047 -0.03821472 0 0 Z M-3.625 1.0625 C-2.625 4.0625 -2.625 4.0625 -2.625 4.0625 Z " fill="#FFFFFF" transform="translate(199.625,31.9375)"/>
<path d="M0 0 C0.66 0.66 1.32 1.32 2 2 C1.625 4.625 1.625 4.625 1 7 C0.01 6.67 -0.98 6.34 -2 6 C-2.33 6.66 -2.66 7.32 -3 8 C-3.99 8 -4.98 8 -6 8 C-4.52307692 2.33846154 -4.52307692 2.33846154 -1.875 0.625 C-0.946875 0.315625 -0.946875 0.315625 0 0 Z " fill="#BEA1EF" transform="translate(946,848)"/>
<path d="M0 0 C0.33 0 0.66 0 1 0 C1.9154645 4.46204176 1.97847873 8.34545385 1.5625 12.875 C1.46066406 14.02742188 1.35882813 15.17984375 1.25390625 16.3671875 C1.17011719 17.23601562 1.08632813 18.10484375 1 19 C0.67 19 0.34 19 0 19 C-0.88789523 13.00670719 -1.40182396 7.06281442 -1 1 C-0.67 0.67 -0.34 0.34 0 0 Z " fill="#A423F4" transform="translate(35,425)"/>
<path d="M0 0 C0.98316039 3.40388303 1.29411056 6.72259589 1.5625 10.25 C1.64628906 11.32765625 1.73007812 12.4053125 1.81640625 13.515625 C1.87699219 14.33546875 1.93757812 15.1553125 2 16 C1.34 16 0.68 16 0 16 C-2.29612756 6.58997722 -2.29612756 6.58997722 -2 2 C-1.34 2 -0.68 2 0 2 C0 1.34 0 0.68 0 0 Z " fill="#9D68F2" transform="translate(968,219)"/>
<path d="M0 0 C0.66 0.99 1.32 1.98 2 3 C0.35 3 -1.3 3 -3 3 C-3 3.66 -3 4.32 -3 5 C-4.65 4.67 -6.3 4.34 -8 4 C-8 2.68 -8 1.36 -8 0 C-4.67212881 -1.1092904 -3.3006216 -1.01557588 0 0 Z M-6 1 C-5 3 -5 3 -5 3 Z " fill="#FFFFFF" transform="translate(142,937)"/>
<path d="M0 0 C2.31 0.33 4.62 0.66 7 1 C5.52307692 5.67692308 5.52307692 5.67692308 2.875 7.3125 C1.946875 7.6528125 1.946875 7.6528125 1 8 C0.67 7.01 0.34 6.02 0 5 C0.66 4.34 1.32 3.68 2 3 C1.34 2.67 0.68 2.34 0 2 C0 1.34 0 0.68 0 0 Z " fill="#FFFFFF" transform="translate(58,141)"/>
<path d="M0 0 C0.66 0 1.32 0 2 0 C1.68232368 5.40049736 -1.19996327 7.52337065 -5 11 C-7 10 -7 10 -8 8 C-7.21625 7.731875 -6.4325 7.46375 -5.625 7.1875 C-2.71885077 6.15185568 -2.71885077 6.15185568 -1 3 C-0.67 2.01 -0.34 1.02 0 0 Z " fill="#B897FB" transform="translate(110,84)"/>
<path d="M0 0 C3 0 3 0 6 1 C2.35883227 4.33773709 -1.28607242 4.97864902 -6 6 C-6.33 5.34 -6.66 4.68 -7 4 C-5.824375 3.566875 -5.824375 3.566875 -4.625 3.125 C-1.90328368 2.15087746 -1.90328368 2.15087746 0 0 Z " fill="#AC7DF8" transform="translate(206,32)"/>
<path d="M0 0 C0.99 0.33 1.98 0.66 3 1 C1.9375 3.5 1.9375 3.5 0 6 C-3.6875 6.3125 -3.6875 6.3125 -7 6 C-4.8322078 3.72381819 -2.67272281 1.67045176 0 0 Z " fill="#FFFFFF" transform="translate(874,929)"/>
<path d="M0 0 C1.36125 0.12375 1.36125 0.12375 2.75 0.25 C2.75 0.91 2.75 1.57 2.75 2.25 C0.12204724 3.65783184 -2.29634002 4.75772334 -5.25 5.25 C-5.91 4.92 -6.57 4.59 -7.25 4.25 C-4.83923194 1.28290085 -3.90322061 0.30024774 0 0 Z " fill="#FFFFFF" transform="translate(907.25,903.75)"/>
<path d="M0 0 C0.66 0 1.32 0 2 0 C2 1.65 2 3.3 2 5 C3.65 5.33 5.3 5.66 7 6 C6.01 6.495 6.01 6.495 5 7 C4.34 6.67 3.68 6.34 3 6 C3 6.66 3 7.32 3 8 C1.68 7.67 0.36 7.34 -1 7 C-0.67 4.69 -0.34 2.38 0 0 Z " fill="#FFFFFF" transform="translate(90,895)"/>
<path d="M0 0 C1.98 0 3.96 0 6 0 C6 0.99 6 1.98 6 3 C5.34 3 4.68 3 4 3 C4.33 3.99 4.66 4.98 5 6 C4.01 6.495 4.01 6.495 3 7 C0 2.25 0 2.25 0 0 Z " fill="#FFFFFF" transform="translate(51,154)"/>
<path d="M0 0 C1.65 0 3.3 0 5 0 C4.65120368 3.25543229 3.97866739 4.01873107 1.4375 6.25 C0.633125 6.8275 -0.17125 7.405 -1 8 C-0.835 7.236875 -0.67 6.47375 -0.5 5.6875 C0.09145396 2.96403764 0.09145396 2.96403764 0 0 Z " fill="#B097FD" transform="translate(85,109)"/>
<path d="M0 0 C0 0.99 0 1.98 0 3 C-1.65 3.33 -3.3 3.66 -5 4 C-5 3.34 -5 2.68 -5 2 C-5.99 2 -6.98 2 -8 2 C-8 1.34 -8 0.68 -8 0 C-4.71023192 -1.09658936 -3.28696233 -0.79953138 0 0 Z " fill="#FFE7FF" transform="translate(784,969)"/>
<path d="M0 0 C0.66 0.66 1.32 1.32 2 2 C1.67 2.99 1.34 3.98 1 5 C-1.97 5 -4.94 5 -8 5 C-6.37633534 1.75267068 -3.24612161 1.29844864 0 0 Z " fill="#904FE7" transform="translate(834,950)"/>
<path d="M0 0 C1.32 0.33 2.64 0.66 4 1 C4 3.64 4 6.28 4 9 C2 7.875 2 7.875 0 6 C-0.25 2.8125 -0.25 2.8125 0 0 Z " fill="#CCADF5" transform="translate(45,821)"/>
<path d="M0 0 C0.66 0.33 1.32 0.66 2 1 C1.67 5.29 1.34 9.58 1 14 C0.67 14 0.34 14 0 14 C-0.19393875 11.85473901 -0.37998676 9.70876323 -0.5625 7.5625 C-0.71912109 5.77005859 -0.71912109 5.77005859 -0.87890625 3.94140625 C-0.91886719 2.97074219 -0.95882812 2.00007813 -1 1 C-0.67 0.67 -0.34 0.34 0 0 Z " fill="#8A51F1" transform="translate(969,307)"/>
<path d="M0 0 C5.625 -0.25 5.625 -0.25 9 2 C6 4 6 4 2.8125 3.625 C1.884375 3.41875 0.95625 3.2125 0 3 C0 2.01 0 1.02 0 0 Z " fill="#A47CEC" transform="translate(762,969)"/>
<path d="M0 0 C0.66 0.33 1.32 0.66 2 1 C2.1875 3.875 2.1875 3.875 2 7 C1.01 7.66 0.02 8.32 -1 9 C-1.66 8.34 -2.32 7.68 -3 7 C-2.34 6.67 -1.68 6.34 -1 6 C-1.0309375 4.7934375 -1.0309375 4.7934375 -1.0625 3.5625 C-1 1 -1 1 0 0 Z " fill="#9C5DF5" transform="translate(36,229)"/>
<path d="M0 0 C0.144375 0.61875 0.28875 1.2375 0.4375 1.875 C0.93152225 4.03258322 0.93152225 4.03258322 2 6 C1.0625 8.125 1.0625 8.125 0 10 C-2.1519437 6.77208445 -2.20086443 5.71599191 -2 2 C-1.34 2 -0.68 2 0 2 C0 1.34 0 0.68 0 0 Z " fill="#FFEBFF" transform="translate(959,174)"/>
<path d="M0 0 C-1.36983503 3.16115776 -1.9890638 3.9927092 -5 6 C-5.99 5.67 -6.98 5.34 -8 5 C-3.22727273 0 -3.22727273 0 0 0 Z " fill="#BDA2FB" transform="translate(140,64)"/>
<path d="M0 0 C0.99 0.33 1.98 0.66 3 1 C4.66621616 1.03874921 6.33394172 1.0450286 8 1 C6.875 2.5 6.875 2.5 5 4 C1.8125 4.1875 1.8125 4.1875 -1 4 C-0.67 2.68 -0.34 1.36 0 0 Z " fill="#FFFFFF" transform="translate(193,963)"/>
<path d="M0 0 C1.5 1.25 1.5 1.25 3 3 C3 4.32 3 5.64 3 7 C2.01 7.33 1.02 7.66 0 8 C-0.98120464 4.94736336 -0.98120464 3.05263664 0 0 Z " fill="#FFF8FF" transform="translate(52,838)"/>
<path d="M0 0 C0.94875 0.350625 1.8975 0.70125 2.875 1.0625 C2.215 2.3825 1.555 3.7025 0.875 5.0625 C-0.115 4.4025 -1.105 3.7425 -2.125 3.0625 C-2.125 2.4025 -2.125 1.7425 -2.125 1.0625 C-3.115 0.7325 -4.105 0.4025 -5.125 0.0625 C-3.125 -0.9375 -3.125 -0.9375 0 0 Z " fill="#FFFFFF" transform="translate(841.125,45.9375)"/>
<path d="M0 0 C0.99 0 1.98 0 3 0 C3 0.99 3 1.98 3 3 C3.66 3.33 4.32 3.66 5 4 C3.02 4.33 1.04 4.66 -1 5 C-0.67 3.35 -0.34 1.7 0 0 Z " fill="#FFFFFF" transform="translate(161,45)"/>
<path d="M0 0 C2.475 0.495 2.475 0.495 5 1 C5 1.66 5 2.32 5 3 C5.66 3.33 6.32 3.66 7 4 C4.69 4 2.38 4 0 4 C0 2.68 0 1.36 0 0 Z " fill="#B88AF1" transform="translate(233,968)"/>
<path d="M0 0 C3.16115776 1.36983503 3.9927092 1.9890638 6 5 C4.68 5 3.36 5 2 5 C2 4.34 2 3.68 2 3 C1.01 2.67 0.02 2.34 -1 2 C-0.67 1.34 -0.34 0.68 0 0 Z " fill="#FAFAFF" transform="translate(853,942)"/>
<path d="M0 0 C0.94875 0.350625 1.8975 0.70125 2.875 1.0625 C0.875 3.0625 0.875 3.0625 -1.75 3.1875 C-2.53375 3.14625 -3.3175 3.105 -4.125 3.0625 C-4.455 2.0725 -4.785 1.0825 -5.125 0.0625 C-3.125 -0.9375 -3.125 -0.9375 0 0 Z " fill="#FFFFFF" transform="translate(107.125,912.9375)"/>
<path d="M0 0 C0.66 0.33 1.32 0.66 2 1 C2 3 2 5 2 7 C0.68 7 -0.64 7 -2 7 C-2.125 4.625 -2.125 4.625 -2 2 C-1.34 1.34 -0.68 0.68 0 0 Z " fill="#FFFFFF" transform="translate(47,169)"/>
<path d="M0 0 C2.475 0.99 2.475 0.99 5 2 C4.34 3.65 3.68 5.3 3 7 C2.34 6.67 1.68 6.34 1 6 C0.375 2.9375 0.375 2.9375 0 0 Z " fill="#F9F6FF" transform="translate(64,134)"/>
<path d="M0 0 C0.66 0 1.32 0 2 0 C1.25 2.4375 1.25 2.4375 0 5 C-2.125 5.8125 -2.125 5.8125 -4 6 C-4.33 5.01 -4.66 4.02 -5 3 C-3.68 3 -2.36 3 -1 3 C-0.67 2.01 -0.34 1.02 0 0 Z " fill="#A47DFA" transform="translate(117,80)"/>
<path d="M0 0 C3.29714793 0.32971479 4.6226839 0.6226839 7 3 C3.625 3.625 3.625 3.625 0 4 C-0.66 3.34 -1.32 2.68 -2 2 C-1.34 1.34 -0.68 0.68 0 0 Z " fill="#9973EF" transform="translate(154,944)"/>
<path d="M0 0 C2 3.75 2 3.75 2 6 C0.68 6 -0.64 6 -2 6 C-2.33 4.35 -2.66 2.7 -3 1 C-2.01 0.67 -1.02 0.34 0 0 Z " fill="#FFFFFF" transform="translate(36,788)"/>
<path d="M0 0 C0.99 0.33 1.98 0.66 3 1 C3 2.32 3 3.64 3 5 C2.01 4.67 1.02 4.34 0 4 C0 2.68 0 1.36 0 0 Z " fill="#FFFFFF" transform="translate(173,955)"/>
<path d="M0 0 C0.99 0 1.98 0 3 0 C3 0.99 3 1.98 3 3 C1.68 3.33 0.36 3.66 -1 4 C-0.67 2.68 -0.34 1.36 0 0 Z " fill="#FFFFFF" transform="translate(129,64)"/>
<path d="M0 0 C1.65 0 3.3 0 5 0 C4.01 1.485 4.01 1.485 3 3 C2.01 3 1.02 3 0 3 C0 2.01 0 1.02 0 0 Z " fill="#FFFFFF" transform="translate(64,868)"/>
<path d="M0 0 C1.32 0.33 2.64 0.66 4 1 C4 1.66 4 2.32 4 3 C2.68 2.67 1.36 2.34 0 2 C0 1.34 0 0.68 0 0 Z " fill="#FFFFFF" transform="translate(128,932)"/>
<path d="M0 0 C1.32 1.32 2.64 2.64 4 4 C2.68 4 1.36 4 0 4 C0 2.68 0 1.36 0 0 Z " fill="#FFFFFF" transform="translate(944,854)"/>
<path d="M0 0 C0.33 0 0.66 0 1 0 C1 2.97 1 5.94 1 9 C0.67 9 0.34 9 0 9 C0 6.03 0 3.06 0 0 Z " fill="#FFFFFF" transform="translate(972,432)"/>
<path d="M0 0 C1.98 0.99 1.98 0.99 4 2 C2.02 2.99 2.02 2.99 0 4 C0 2.68 0 1.36 0 0 Z " fill="#FFFFFF" transform="translate(896,912)"/>
<path d="M0 0 C0.33 0 0.66 0 1 0 C1 2.64 1 5.28 1 8 C0.67 8 0.34 8 0 8 C0 5.36 0 2.72 0 0 Z " fill="#FFFFFF" transform="translate(971,329)"/>
<path d="M0 0 C0.33 0 0.66 0 1 0 C1 2.64 1 5.28 1 8 C0.67 8 0.34 8 0 8 C0 5.36 0 2.72 0 0 Z " fill="#FFFFFF" transform="translate(972,245)"/>
<path d="M0 0 C0.66 0.33 1.32 0.66 2 1 C1.67 1.99 1.34 2.98 1 4 C0.34 4 -0.32 4 -1 4 C-0.67 2.68 -0.34 1.36 0 0 Z " fill="#FFFFFF" transform="translate(901,910)"/>
<path d="M0 0 C0.99 0.495 0.99 0.495 2 1 C1.67 2.32 1.34 3.64 1 5 C0.67 3.35 0.34 1.7 0 0 Z " fill="#FFFFFF" transform="translate(965,809)"/>
<path d="M0 0 C0.33 0 0.66 0 1 0 C1 2.31 1 4.62 1 7 C0.67 7 0.34 7 0 7 C0 4.69 0 2.38 0 0 Z " fill="#FFFFFF" transform="translate(971,557)"/>
<path d="M0 0 C0.33 0.66 0.66 1.32 1 2 C1.66 2.33 2.32 2.66 3 3 C2.01 3 1.02 3 0 3 C0 2.01 0 1.02 0 0 Z " fill="#FFFFFF" transform="translate(939,136)"/>
<path d="M0 0 C0.66 1.32 1.32 2.64 2 4 C1.01 4.495 1.01 4.495 0 5 C0 3.35 0 1.7 0 0 Z " fill="#FFFFFF" transform="translate(971,746)"/>
<path d="M0 0 C0.33 0 0.66 0 1 0 C1 1.98 1 3.96 1 6 C0.67 6 0.34 6 0 6 C0 4.02 0 2.04 0 0 Z " fill="#FFFFFF" transform="translate(971,442)"/>
<path d="M0 0 C0.33 0 0.66 0 1 0 C1 1.98 1 3.96 1 6 C0.67 6 0.34 6 0 6 C0 4.02 0 2.04 0 0 Z " fill="#FFFFFF" transform="translate(972,404)"/>
<path d="M0 0 C0.33 0 0.66 0 1 0 C1 1.98 1 3.96 1 6 C0.67 6 0.34 6 0 6 C0 4.02 0 2.04 0 0 Z " fill="#FFFFFF" transform="translate(972,289)"/>
<path d="M0 0 C0.66 1.32 1.32 2.64 2 4 C1.01 4.495 1.01 4.495 0 5 C0 3.35 0 1.7 0 0 Z " fill="#FFFFFF" transform="translate(971,220)"/>
<path d="M0 0 C1.98 0.99 1.98 0.99 4 2 C3.01 2.33 2.02 2.66 1 3 C0.67 2.01 0.34 1.02 0 0 Z " fill="#FFFFFF" transform="translate(71,123)"/>
<path d="M0 0 C0.66 0 1.32 0 2 0 C2.33 0.99 2.66 1.98 3 3 C2.34 3 1.68 3 1 3 C0.67 2.01 0.34 1.02 0 0 Z " fill="#FFFFFF" transform="translate(45,828)"/>
<path d="M0 0 C0.99 0.33 1.98 0.66 3 1 C2.67 1.66 2.34 2.32 2 3 C1.34 2.01 0.68 1.02 0 0 Z " fill="#FFFFFF" transform="translate(843,45)"/>
<path d="M0 0 C0.99 0.33 1.98 0.66 3 1 C2.01 1.33 1.02 1.66 0 2 C0 1.34 0 0.68 0 0 Z " fill="#FFFFFF" transform="translate(240,972)"/>
<path d="M0 0 C0.66 0.33 1.32 0.66 2 1 C1.01 1 0.02 1 -1 1 C-0.67 0.67 -0.34 0.34 0 0 Z " fill="#FFFFFF" transform="translate(221,969)"/>
<path d="M0 0 C0.99 0.33 1.98 0.66 3 1 C2.01 1 1.02 1 0 1 C0 0.67 0 0.34 0 0 Z " fill="#FFFFFF" transform="translate(807,965)"/>
<path d="M0 0 C0 3 0 3 0 3 Z " fill="#FFFFFF" transform="translate(825,958)"/>
<path d="M0 0 C0.66 0.66 1.32 1.32 2 2 C1.01 2.495 1.01 2.495 0 3 C0 2.01 0 1.02 0 0 Z " fill="#FFFFFF" transform="translate(876,931)"/>
<path d="M0 0 C0.99 0.33 1.98 0.66 3 1 C2.01 1 1.02 1 0 1 C0 0.67 0 0.34 0 0 Z " fill="#FFFFFF" transform="translate(78,888)"/>
<path d="M0 0 C0.33 0.99 0.66 1.98 1 3 C0.34 2.67 -0.32 2.34 -1 2 C-0.67 1.34 -0.34 0.68 0 0 Z " fill="#FFFFFF" transform="translate(934,873)"/>
<path d="M0 0 C0.99 0.495 0.99 0.495 2 1 C1.67 1.66 1.34 2.32 1 3 C0.67 2.01 0.34 1.02 0 0 Z " fill="#FFFFFF" transform="translate(64,865)"/>
<path d="M0 0 C0.66 0 1.32 0 2 0 C1.67 0.99 1.34 1.98 1 3 C0.67 2.01 0.34 1.02 0 0 Z " fill="#FFFFFF" transform="translate(971,761)"/>
<path d="M0 0 C1 4 1 4 1 4 Z " fill="#FFFFFF" transform="translate(972,733)"/>
<path d="M0 0 C1 4 1 4 1 4 Z " fill="#FFFFFF" transform="translate(972,617)"/>
<path d="M0 0 C1 4 1 4 1 4 Z " fill="#FFFFFF" transform="translate(32,474)"/>
<path d="M0 0 C1 4 1 4 1 4 Z " fill="#FFFFFF" transform="translate(971,419)"/>
<path d="M0 0 C1 4 1 4 1 4 Z " fill="#FFFFFF" transform="translate(971,410)"/>
<path d="M0 0 C1 4 1 4 1 4 Z " fill="#FFFFFF" transform="translate(971,400)"/>
<path d="M0 0 C1 4 1 4 1 4 Z " fill="#FFFFFF" transform="translate(972,372)"/>
<path d="M0 0 C1 4 1 4 1 4 Z " fill="#FFFFFF" transform="translate(971,237)"/>
<path d="M0 0 C0.66 0 1.32 0 2 0 C2 0.66 2 1.32 2 2 C1.34 2 0.68 2 0 2 C0 1.34 0 0.68 0 0 Z " fill="#FFFFFF" transform="translate(33,233)"/>
<path d="M0 0 C4 1 4 1 4 1 Z " fill="#FFFFFF" transform="translate(928,122)"/>
<path d="M0 0 C0.33 0.66 0.66 1.32 1 2 C0.01 1.67 -0.98 1.34 -2 1 C-1.34 0.67 -0.68 0.34 0 0 Z " fill="#FFFFFF" transform="translate(155,52)"/>
<path d="M0 0 C4 1 4 1 4 1 Z " fill="#FFFFFF" transform="translate(234,26)"/>
<path d="M0 0 C0.66 0 1.32 0 2 0 C1.67 0.66 1.34 1.32 1 2 C0.67 1.34 0.34 0.68 0 0 Z " fill="#FFFFFF" transform="translate(776,972)"/>
<path d="M0 0 C3 1 3 1 3 1 Z " fill="#FFFFFF" transform="translate(770,972)"/>
<path d="M0 0 C3 1 3 1 3 1 Z " fill="#FFFFFF" transform="translate(223,972)"/>
<path d="M0 0 C0.33 0.66 0.66 1.32 1 2 C0.34 1.67 -0.32 1.34 -1 1 C-0.67 0.67 -0.34 0.34 0 0 Z " fill="#FFFFFF" transform="translate(787,970)"/>
<path d="M0 0 C3 1 3 1 3 1 Z " fill="#FFFFFF" transform="translate(228,970)"/>
<path d="" fill="#FFFFFF" transform="translate(0,0)"/>
<path d="M0 0 C0.66 0 1.32 0 2 0 C1.67 0.66 1.34 1.32 1 2 C0.67 1.34 0.34 0.68 0 0 Z " fill="#FFFFFF" transform="translate(881,927)"/>
<path d="M0 0 C0.66 0 1.32 0 2 0 C1.67 0.66 1.34 1.32 1 2 C0.67 1.34 0.34 0.68 0 0 Z " fill="#FFFFFF" transform="translate(109,920)"/>
<path d="M0 0 C0.33 0.66 0.66 1.32 1 2 C0.34 1.67 -0.32 1.34 -1 1 C-0.67 0.67 -0.34 0.34 0 0 Z " fill="#FFFFFF" transform="translate(103,910)"/>
<path d="M0 0 C0.99 0.495 0.99 0.495 2 1 C1.01 1.495 1.01 1.495 0 2 C0 1.34 0 0.68 0 0 Z " fill="#FFFFFF" transform="translate(907,908)"/>
<path d="M0 0 C0.66 0 1.32 0 2 0 C1.67 0.66 1.34 1.32 1 2 C0.67 1.34 0.34 0.68 0 0 Z " fill="#FFFFFF" transform="translate(913,895)"/>
<path d="" fill="#FFFFFF" transform="translate(0,0)"/>
<path d="" fill="#FFFFFF" transform="translate(0,0)"/>
<path d="" fill="#FFFFFF" transform="translate(0,0)"/>
<path d="" fill="#FFFFFF" transform="translate(0,0)"/>
<path d="M0 0 C0.99 0.495 0.99 0.495 2 1 C1.01 1.495 1.01 1.495 0 2 C0 1.34 0 0.68 0 0 Z " fill="#FFFFFF" transform="translate(33,782)"/>
<path d="" fill="#FFFFFF" transform="translate(0,0)"/>
<path d="" fill="#FFFFFF" transform="translate(0,0)"/>
<path d="" fill="#FFFFFF" transform="translate(0,0)"/>
<path d="" fill="#FFFFFF" transform="translate(0,0)"/>
<path d="" fill="#FFFFFF" transform="translate(0,0)"/>
<path d="" fill="#FFFFFF" transform="translate(0,0)"/>
<path d="" fill="#FFFFFF" transform="translate(0,0)"/>
<path d="" fill="#FFFFFF" transform="translate(0,0)"/>
<path d="" fill="#FFFFFF" transform="translate(0,0)"/>
<path d="" fill="#FFFFFF" transform="translate(0,0)"/>
<path d="M0 0 C0.99 0.495 0.99 0.495 2 1 C1.01 1.495 1.01 1.495 0 2 C0 1.34 0 0.68 0 0 Z " fill="#FFFFFF" transform="translate(32,231)"/>
<path d="M0 0 C0.33 0.66 0.66 1.32 1 2 C0.34 1.67 -0.32 1.34 -1 1 C-0.67 0.67 -0.34 0.34 0 0 Z " fill="#FFFFFF" transform="translate(966,203)"/>
<path d="M0 0 C0.66 0.66 1.32 1.32 2 2 C1.34 2 0.68 2 0 2 C0 1.34 0 0.68 0 0 Z " fill="#FFFFFF" transform="translate(39,190)"/>
<path d="M0 0 C0.66 0 1.32 0 2 0 C1.67 0.66 1.34 1.32 1 2 C0.67 1.34 0.34 0.68 0 0 Z " fill="#FFFFFF" transform="translate(40,186)"/>
<path d="" fill="#FFFFFF" transform="translate(0,0)"/>
<path d="M0 0 C3 1 3 1 3 1 Z " fill="#FFFFFF" transform="translate(57,144)"/>
<path d="M0 0 C0.99 0.495 0.99 0.495 2 1 C1.01 1.495 1.01 1.495 0 2 C0 1.34 0 0.68 0 0 Z " fill="#FFFFFF" transform="translate(937,135)"/>
<path d="M0 0 C0.99 0.495 0.99 0.495 2 1 C1.01 1.495 1.01 1.495 0 2 C0 1.34 0 0.68 0 0 Z " fill="#FFFFFF" transform="translate(925,116)"/>
<path d="M0 0 C0.33 0.66 0.66 1.32 1 2 C0.34 1.67 -0.32 1.34 -1 1 C-0.67 0.67 -0.34 0.34 0 0 Z " fill="#FFFFFF" transform="translate(103,89)"/>
<path d="M0 0 C0.99 0.495 0.99 0.495 2 1 C1.01 1.495 1.01 1.495 0 2 C0 1.34 0 0.68 0 0 Z " fill="#FFFFFF" transform="translate(115,77)"/>
<path d="M0 0 C0.33 0.66 0.66 1.32 1 2 C0.34 1.67 -0.32 1.34 -1 1 C-0.67 0.67 -0.34 0.34 0 0 Z " fill="#FFFFFF" transform="translate(883,70)"/>
<path d="M0 0 C3 1 3 1 3 1 Z " fill="#FFFFFF" transform="translate(129,68)"/>
<path d="M0 0 C2 1 2 1 2 1 Z " fill="#FFFFFF" transform="translate(774,973)"/>
<path d="M0 0 C2 1 2 1 2 1 Z " fill="#FFFFFF" transform="translate(762,973)"/>
<path d="M0 0 C2 1 2 1 2 1 Z " fill="#FFFFFF" transform="translate(752,973)"/>
<path d="M0 0 C2 1 2 1 2 1 Z " fill="#FFFFFF" transform="translate(638,973)"/>
<path d="M0 0 C2 1 2 1 2 1 Z " fill="#FFFFFF" transform="translate(523,973)"/>
<path d="M0 0 C2 1 2 1 2 1 Z " fill="#FFFFFF" transform="translate(481,973)"/>
<path d="" fill="#FFFFFF" transform="translate(0,0)"/>
<path d="" fill="#FFFFFF" transform="translate(0,0)"/>
<path d="M0 0 C2 1 2 1 2 1 Z " fill="#FFFFFF" transform="translate(245,972)"/>
<path d="M0 0 C2 1 2 1 2 1 Z " fill="#FFFFFF" transform="translate(227,972)"/>
<path d="M0 0 C2 1 2 1 2 1 Z " fill="#FFFFFF" transform="translate(827,958)"/>
<path d="" fill="#FFFFFF" transform="translate(0,0)"/>
<path d="" fill="#FFFFFF" transform="translate(0,0)"/>
<path d="M0 0 C2 1 2 1 2 1 Z " fill="#FFFFFF" transform="translate(112,921)"/>
<path d="" fill="#FFFFFF" transform="translate(0,0)"/>
<path d="M0 0 C2 1 2 1 2 1 Z " fill="#FFFFFF" transform="translate(912,901)"/>
<path d="M0 0 C2 1 2 1 2 1 Z " fill="#FFFFFF" transform="translate(910,899)"/>
<path d="" fill="#FFFFFF" transform="translate(0,0)"/>
<path d="M0 0 C2 1 2 1 2 1 Z " fill="#FFFFFF" transform="translate(64,863)"/>
<path d="" fill="#FFFFFF" transform="translate(0,0)"/>
<path d="" fill="#FFFFFF" transform="translate(0,0)"/>
<path d="" fill="#FFFFFF" transform="translate(0,0)"/>
<path d="" fill="#FFFFFF" transform="translate(0,0)"/>
<path d="" fill="#FFFFFF" transform="translate(0,0)"/>
<path d="" fill="#FFFFFF" transform="translate(0,0)"/>
<path d="" fill="#FFFFFF" transform="translate(0,0)"/>
<path d="" fill="#FFFFFF" transform="translate(0,0)"/>
<path d="" fill="#FFFFFF" transform="translate(0,0)"/>
<path d="" fill="#FFFFFF" transform="translate(0,0)"/>
<path d="" fill="#FFFFFF" transform="translate(0,0)"/>
<path d="" fill="#FFFFFF" transform="translate(0,0)"/>
<path d="" fill="#FFFFFF" transform="translate(0,0)"/>
<path d="" fill="#FFFFFF" transform="translate(0,0)"/>
<path d="" fill="#FFFFFF" transform="translate(0,0)"/>
<path d="" fill="#FFFFFF" transform="translate(0,0)"/>
<path d="" fill="#FFFFFF" transform="translate(0,0)"/>
<path d="" fill="#FFFFFF" transform="translate(0,0)"/>
<path d="" fill="#FFFFFF" transform="translate(0,0)"/>
<path d="" fill="#FFFFFF" transform="translate(0,0)"/>
<path d="" fill="#FFFFFF" transform="translate(0,0)"/>
<path d="" fill="#FFFFFF" transform="translate(0,0)"/>
<path d="" fill="#FFFFFF" transform="translate(0,0)"/>
<path d="" fill="#FFFFFF" transform="translate(0,0)"/>
<path d="" fill="#FFFFFF" transform="translate(0,0)"/>
<path d="" fill="#FFFFFF" transform="translate(0,0)"/>
<path d="" fill="#FFFFFF" transform="translate(0,0)"/>
<path d="" fill="#FFFFFF" transform="translate(0,0)"/>
<path d="" fill="#FFFFFF" transform="translate(0,0)"/>
<path d="" fill="#FFFFFF" transform="translate(0,0)"/>
<path d="" fill="#FFFFFF" transform="translate(0,0)"/>
<path d="" fill="#FFFFFF" transform="translate(0,0)"/>
<path d="" fill="#FFFFFF" transform="translate(0,0)"/>
<path d="" fill="#FFFFFF" transform="translate(0,0)"/>
<path d="" fill="#FFFFFF" transform="translate(0,0)"/>
<path d="" fill="#FFFFFF" transform="translate(0,0)"/>
<path d="" fill="#FFFFFF" transform="translate(0,0)"/>
<path d="" fill="#FFFFFF" transform="translate(0,0)"/>
<path d="" fill="#FFFFFF" transform="translate(0,0)"/>
<path d="" fill="#FFFFFF" transform="translate(0,0)"/>
<path d="" fill="#FFFFFF" transform="translate(0,0)"/>
<path d="" fill="#FFFFFF" transform="translate(0,0)"/>
<path d="M0 0 C2 1 2 1 2 1 Z " fill="#FFFFFF" transform="translate(45,167)"/>
<path d="M0 0 C2 1 2 1 2 1 Z " fill="#FFFFFF" transform="translate(944,147)"/>
<path d="" fill="#FFFFFF" transform="translate(0,0)"/>
<path d="" fill="#FFFFFF" transform="translate(0,0)"/>
<path d="" fill="#FFFFFF" transform="translate(0,0)"/>
<path d="" fill="#FFFFFF" transform="translate(0,0)"/>
<path d="M0 0 C2 1 2 1 2 1 Z " fill="#FFFFFF" transform="translate(90,104)"/>
<path d="" fill="#FFFFFF" transform="translate(0,0)"/>
<path d="" fill="#FFFFFF" transform="translate(0,0)"/>
<path d="M0 0 C2 1 2 1 2 1 Z " fill="#FFFFFF" transform="translate(889,79)"/>
<path d="" fill="#FFFFFF" transform="translate(0,0)"/>
<path d="M0 0 C2 1 2 1 2 1 Z " fill="#FFFFFF" transform="translate(871,67)"/>
<path d="M0 0 C2 1 2 1 2 1 Z " fill="#FFFFFF" transform="translate(874,66)"/>
<path d="M0 0 C2 1 2 1 2 1 Z " fill="#FFFFFF" transform="translate(871,65)"/>
<path d="M0 0 C2 1 2 1 2 1 Z " fill="#FFFFFF" transform="translate(875,64)"/>
<path d="M0 0 C2 1 2 1 2 1 Z " fill="#FFFFFF" transform="translate(150,54)"/>
<path d="M0 0 C2 1 2 1 2 1 Z " fill="#FFFFFF" transform="translate(148,52)"/>
<path d="M0 0 C2 1 2 1 2 1 Z " fill="#FFFFFF" transform="translate(151,51)"/>
<path d="M0 0 C2 1 2 1 2 1 Z " fill="#FFFFFF" transform="translate(824,39)"/>
<path d="M0 0 C2 1 2 1 2 1 Z " fill="#FFFFFF" transform="translate(812,33)"/>
<path d="" fill="#FFFFFF" transform="translate(0,0)"/>
<path d="" fill="#FFFFFF" transform="translate(0,0)"/>
<path d="M0 0 C2 1 2 1 2 1 Z " fill="#FFFFFF" transform="translate(786,26)"/>
<path d="" fill="#FFFFFF" transform="translate(0,0)"/>
<path d="" fill="#FFFFFF" transform="translate(0,0)"/>
<path d="" fill="#FFFFFF" transform="translate(0,0)"/>
<path d="" fill="#FFFFFF" transform="translate(0,0)"/>
<path d="" fill="#FFFFFF" transform="translate(0,0)"/>
<path d="" fill="#FFFFFF" transform="translate(0,0)"/>
<path d="" fill="#FFFFFF" transform="translate(0,0)"/>
<path d="" fill="#FFFFFF" transform="translate(0,0)"/>
<path d="" fill="#FFFFFF" transform="translate(0,0)"/>
<path d="" fill="#FFFFFF" transform="translate(0,0)"/>
<path d="" fill="#FFFFFF" transform="translate(0,0)"/>
<path d="" fill="#FFFFFF" transform="translate(0,0)"/>
<path d="" fill="#FFFFFF" transform="translate(0,0)"/>
<path d="" fill="#FFFFFF" transform="translate(0,0)"/>
<path d="" fill="#FFFFFF" transform="translate(0,0)"/>
<path d="" fill="#FFFFFF" transform="translate(0,0)"/>
<path d="" fill="#FFFFFF" transform="translate(0,0)"/>
<path d="" fill="#FFFFFF" transform="translate(0,0)"/>
<path d="" fill="#FFFFFF" transform="translate(0,0)"/>
<path d="" fill="#FFFFFF" transform="translate(0,0)"/>
<path d="" fill="#FFFFFF" transform="translate(0,0)"/>
<path d="" fill="#FFFFFF" transform="translate(0,0)"/>
<path d="" fill="#FFFFFF" transform="translate(0,0)"/>
<path d="" fill="#FFFFFF" transform="translate(0,0)"/>
<path d="" fill="#FFFFFF" transform="translate(0,0)"/>
<path d="" fill="#FFFFFF" transform="translate(0,0)"/>
<path d="" fill="#FFFFFF" transform="translate(0,0)"/>
<path d="" fill="#FFFFFF" transform="translate(0,0)"/>
<path d="" fill="#FFFFFF" transform="translate(0,0)"/>
<path d="" fill="#FFFFFF" transform="translate(0,0)"/>
<path d="" fill="#FFFFFF" transform="translate(0,0)"/>
<path d="" fill="#FFFFFF" transform="translate(0,0)"/>
<path d="" fill="#FFFFFF" transform="translate(0,0)"/>
<path d="" fill="#FFFFFF" transform="translate(0,0)"/>
<path d="" fill="#FFFFFF" transform="translate(0,0)"/>
<path d="" fill="#FFFFFF" transform="translate(0,0)"/>
<path d="" fill="#FFFFFF" transform="translate(0,0)"/>
<path d="" fill="#FFFFFF" transform="translate(0,0)"/>
<path d="" fill="#FFFFFF" transform="translate(0,0)"/>
<path d="" fill="#FFFFFF" transform="translate(0,0)"/>
<path d="" fill="#FFFFFF" transform="translate(0,0)"/>
<path d="" fill="#FFFFFF" transform="translate(0,0)"/>
<path d="" fill="#FFFFFF" transform="translate(0,0)"/>
<path d="" fill="#FFFFFF" transform="translate(0,0)"/>
<path d="" fill="#FFFFFF" transform="translate(0,0)"/>
<path d="" fill="#FFFFFF" transform="translate(0,0)"/>
<path d="" fill="#FFFFFF" transform="translate(0,0)"/>
<path d="" fill="#FFFFFF" transform="translate(0,0)"/>
<path d="" fill="#FFFFFF" transform="translate(0,0)"/>
<path d="" fill="#FFFFFF" transform="translate(0,0)"/>
<path d="" fill="#FFFFFF" transform="translate(0,0)"/>
<path d="" fill="#FFFFFF" transform="translate(0,0)"/>
<path d="" fill="#FFFFFF" transform="translate(0,0)"/>
<path d="" fill="#FFFFFF" transform="translate(0,0)"/>
<path d="" fill="#FFFFFF" transform="translate(0,0)"/>
<path d="" fill="#FFFFFF" transform="translate(0,0)"/>
<path d="" fill="#FFFFFF" transform="translate(0,0)"/>
<path d="" fill="#FFFFFF" transform="translate(0,0)"/>
<path d="" fill="#FFFFFF" transform="translate(0,0)"/>
<path d="" fill="#FFFFFF" transform="translate(0,0)"/>
<path d="" fill="#FFFFFF" transform="translate(0,0)"/>
<path d="" fill="#FFFFFF" transform="translate(0,0)"/>
<path d="" fill="#FFFFFF" transform="translate(0,0)"/>
<path d="" fill="#FFFFFF" transform="translate(0,0)"/>
<path d="" fill="#FFFFFF" transform="translate(0,0)"/>
<path d="" fill="#FFFFFF" transform="translate(0,0)"/>
<path d="" fill="#FFFFFF" transform="translate(0,0)"/>
<path d="" fill="#FFFFFF" transform="translate(0,0)"/>
<path d="" fill="#FFFFFF" transform="translate(0,0)"/>
<path d="" fill="#FFFFFF" transform="translate(0,0)"/>
<path d="" fill="#FFFFFF" transform="translate(0,0)"/>
<path d="" fill="#FFFFFF" transform="translate(0,0)"/>
<path d="" fill="#FFFFFF" transform="translate(0,0)"/>
<path d="" fill="#FFFFFF" transform="translate(0,0)"/>
<path d="" fill="#FFFFFF" transform="translate(0,0)"/>
<path d="" fill="#FFFFFF" transform="translate(0,0)"/>
<path d="" fill="#FFFFFF" transform="translate(0,0)"/>
<path d="" fill="#FFFFFF" transform="translate(0,0)"/>
<path d="" fill="#FFFFFF" transform="translate(0,0)"/>
<path d="" fill="#FFFFFF" transform="translate(0,0)"/>
<path d="" fill="#FFFFFF" transform="translate(0,0)"/>
<path d="" fill="#FFFFFF" transform="translate(0,0)"/>
<path d="" fill="#FFFFFF" transform="translate(0,0)"/>
<path d="" fill="#FFFFFF" transform="translate(0,0)"/>
<path d="" fill="#FFFFFF" transform="translate(0,0)"/>
<path d="" fill="#FFFFFF" transform="translate(0,0)"/>
<path d="" fill="#FFFFFF" transform="translate(0,0)"/>
<path d="" fill="#FFFFFF" transform="translate(0,0)"/>
<path d="" fill="#FFFFFF" transform="translate(0,0)"/>
<path d="" fill="#FFFFFF" transform="translate(0,0)"/>
<path d="" fill="#FFFFFF" transform="translate(0,0)"/>
<path d="" fill="#FFFFFF" transform="translate(0,0)"/>
<path d="" fill="#FFFFFF" transform="translate(0,0)"/>
<path d="" fill="#FFFFFF" transform="translate(0,0)"/>
<path d="" fill="#FFFFFF" transform="translate(0,0)"/>
<path d="" fill="#FFFFFF" transform="translate(0,0)"/>
<path d="" fill="#FFFFFF" transform="translate(0,0)"/>
<path d="" fill="#FFFFFF" transform="translate(0,0)"/>
<path d="" fill="#FFFFFF" transform="translate(0,0)"/>
<path d="" fill="#FFFFFF" transform="translate(0,0)"/>
<path d="" fill="#FFFFFF" transform="translate(0,0)"/>
<path d="" fill="#FFFFFF" transform="translate(0,0)"/>
<path d="" fill="#FFFFFF" transform="translate(0,0)"/>
<path d="" fill="#FFFFFF" transform="translate(0,0)"/>
<path d="" fill="#FFFFFF" transform="translate(0,0)"/>
<path d="" fill="#FFFFFF" transform="translate(0,0)"/>
<path d="" fill="#FFFFFF" transform="translate(0,0)"/>
<path d="" fill="#FFFFFF" transform="translate(0,0)"/>
<path d="" fill="#FFFFFF" transform="translate(0,0)"/>
<path d="" fill="#FFFFFF" transform="translate(0,0)"/>
<path d="" fill="#FFFFFF" transform="translate(0,0)"/>
<path d="" fill="#FFFFFF" transform="translate(0,0)"/>
<path d="" fill="#FFFFFF" transform="translate(0,0)"/>
<path d="" fill="#FFFFFF" transform="translate(0,0)"/>
<path d="" fill="#FFFFFF" transform="translate(0,0)"/>
<path d="" fill="#FFFFFF" transform="translate(0,0)"/>
<path d="" fill="#FFFFFF" transform="translate(0,0)"/>
<path d="" fill="#FFFFFF" transform="translate(0,0)"/>
<path d="" fill="#FFFFFF" transform="translate(0,0)"/>
<path d="" fill="#FFFFFF" transform="translate(0,0)"/>
<path d="" fill="#FFFFFF" transform="translate(0,0)"/>
<path d="" fill="#FFFFFF" transform="translate(0,0)"/>
<path d="" fill="#FFFFFF" transform="translate(0,0)"/>
<path d="" fill="#FFFFFF" transform="translate(0,0)"/>
<path d="" fill="#FFFFFF" transform="translate(0,0)"/>
<path d="" fill="#FFFFFF" transform="translate(0,0)"/>
<path d="" fill="#FFFFFF" transform="translate(0,0)"/>
<path d="" fill="#FFFFFF" transform="translate(0,0)"/>
<path d="" fill="#FFFFFF" transform="translate(0,0)"/>
<path d="" fill="#FFFFFF" transform="translate(0,0)"/>
<path d="" fill="#FFFFFF" transform="translate(0,0)"/>
<path d="" fill="#FFFFFF" transform="translate(0,0)"/>
<path d="" fill="#FFFFFF" transform="translate(0,0)"/>
<path d="" fill="#FFFFFF" transform="translate(0,0)"/>
<path d="" fill="#FFFFFF" transform="translate(0,0)"/>
<path d="" fill="#FFFFFF" transform="translate(0,0)"/>
<path d="" fill="#FFFFFF" transform="translate(0,0)"/>
<path d="" fill="#FFFFFF" transform="translate(0,0)"/>
<path d="" fill="#FFFFFF" transform="translate(0,0)"/>
<path d="" fill="#FFFFFF" transform="translate(0,0)"/>
<path d="" fill="#FFFFFF" transform="translate(0,0)"/>
<path d="" fill="#FFFFFF" transform="translate(0,0)"/>
<path d="" fill="#FFFFFF" transform="translate(0,0)"/>
<path d="" fill="#FFFFFF" transform="translate(0,0)"/>
<path d="" fill="#FFFFFF" transform="translate(0,0)"/>
<path d="" fill="#FFFFFF" transform="translate(0,0)"/>
<path d="" fill="#FFFFFF" transform="translate(0,0)"/>
<path d="" fill="#FFFFFF" transform="translate(0,0)"/>
<path d="" fill="#FFFFFF" transform="translate(0,0)"/>
<path d="" fill="#FFFFFF" transform="translate(0,0)"/>
<path d="" fill="#FFFFFF" transform="translate(0,0)"/>
<path d="" fill="#FFFFFF" transform="translate(0,0)"/>
<path d="" fill="#FFFFFF" transform="translate(0,0)"/>
<path d="" fill="#FFFFFF" transform="translate(0,0)"/>
<path d="" fill="#FFFFFF" transform="translate(0,0)"/>
<path d="" fill="#FFFFFF" transform="translate(0,0)"/>
<path d="" fill="#FFFFFF" transform="translate(0,0)"/>
<path d="" fill="#FFFFFF" transform="translate(0,0)"/>
<path d="" fill="#FFFFFF" transform="translate(0,0)"/>
<path d="" fill="#FFFFFF" transform="translate(0,0)"/>
<path d="" fill="#FFFFFF" transform="translate(0,0)"/>
<path d="" fill="#FFFFFF" transform="translate(0,0)"/>
<path d="" fill="#FFFFFF" transform="translate(0,0)"/>
<path d="" fill="#FFFFFF" transform="translate(0,0)"/>
<path d="" fill="#FFFFFF" transform="translate(0,0)"/>
<path d="" fill="#FFFFFF" transform="translate(0,0)"/>
<path d="" fill="#FFFFFF" transform="translate(0,0)"/>
<path d="" fill="#FFFFFF" transform="translate(0,0)"/>
<path d="" fill="#FFFFFF" transform="translate(0,0)"/>
<path d="" fill="#FFFFFF" transform="translate(0,0)"/>
<path d="" fill="#FFFFFF" transform="translate(0,0)"/>
<path d="" fill="#FFFFFF" transform="translate(0,0)"/>
<path d="" fill="#FFFFFF" transform="translate(0,0)"/>
<path d="" fill="#FFFFFF" transform="translate(0,0)"/>
<path d="" fill="#FFFFFF" transform="translate(0,0)"/>
<path d="" fill="#FFFFFF" transform="translate(0,0)"/>
<path d="" fill="#FFFFFF" transform="translate(0,0)"/>
<path d="" fill="#FFFFFF" transform="translate(0,0)"/>
<path d="" fill="#FFFFFF" transform="translate(0,0)"/>
<path d="" fill="#FFFFFF" transform="translate(0,0)"/>
<path d="" fill="#FFFFFF" transform="translate(0,0)"/>
<path d="" fill="#FFFFFF" transform="translate(0,0)"/>
<path d="" fill="#FFFFFF" transform="translate(0,0)"/>
<path d="" fill="#FFFFFF" transform="translate(0,0)"/>
<path d="" fill="#FFFFFF" transform="translate(0,0)"/>
<path d="" fill="#FFFFFF" transform="translate(0,0)"/>
<path d="" fill="#FFFFFF" transform="translate(0,0)"/>
<path d="" fill="#FFFFFF" transform="translate(0,0)"/>
<path d="" fill="#FFFFFF" transform="translate(0,0)"/>
<path d="" fill="#FFFFFF" transform="translate(0,0)"/>
<path d="" fill="#FFFFFF" transform="translate(0,0)"/>
<path d="" fill="#FFFFFF" transform="translate(0,0)"/>
<path d="" fill="#FFFFFF" transform="translate(0,0)"/>
<path d="" fill="#FFFFFF" transform="translate(0,0)"/>
<path d="" fill="#FFFFFF" transform="translate(0,0)"/>
<path d="" fill="#FFFFFF" transform="translate(0,0)"/>
<path d="" fill="#FFFFFF" transform="translate(0,0)"/>
<path d="" fill="#FFFFFF" transform="translate(0,0)"/>
<path d="" fill="#FFFFFF" transform="translate(0,0)"/>
<path d="" fill="#FFFFFF" transform="translate(0,0)"/>
<path d="" fill="#FFFFFF" transform="translate(0,0)"/>
</svg>
